<svg width="24" height="24" viewBox="0 0 24 24" fill="none" xmlns="http://www.w3.org/2000/svg">
<path d="M12 22C6.47707 22 2 17.5229 2 12C2 6.47707 6.47707 2 12 2C17.5229 2 22 6.47707 22 12C22 17.5229 17.5229 22 12 22ZM5.65387 8.05977C5.55344 8.22152 5.45863 8.3877 5.37074 8.5575C4.86738 9.52352 4.5693 10.6113 4.53383 11.7661C4.40355 15.9918 7.84242 19.5082 12.0698 19.4695C13.2859 19.4586 14.4322 19.1564 15.4438 18.6305C15.6136 18.5422 15.7794 18.4474 15.9411 18.3466C16.0145 18.301 16.0266 18.1989 15.9657 18.138L5.86277 8.03516C5.80188 7.97426 5.69984 7.98637 5.65387 8.05977ZM12 4.53016C10.7581 4.53016 9.58723 4.83348 8.5575 5.36949C8.3877 5.45781 8.22113 5.55262 8.05937 5.65305C7.98555 5.69902 7.97348 5.80105 8.03437 5.86199L18.138 15.9656C18.1989 16.0265 18.301 16.0144 18.347 15.9406C18.4474 15.7789 18.5421 15.6123 18.6305 15.4425C19.1666 14.4116 19.4698 13.2419 19.4698 12C19.4698 7.87465 16.1266 4.53016 12 4.53016Z" fill="#E94444"/>
</svg>
