<svg width="20" height="20" viewBox="0 0 20 20" fill="none" xmlns="http://www.w3.org/2000/svg">
<path d="M17.284 14.4961C17.284 12.8355 15.9243 11.4869 14.2554 11.4869C13.221 11.4869 12.3092 11.9999 11.76 12.7879C10.6456 12.2855 9.36055 12.2855 8.24616 12.7932C7.69694 12.0052 6.77984 11.4869 5.74541 11.4869C4.07647 11.4869 2.7168 12.8355 2.7168 14.4961C2.7168 16.1514 4.07647 17.5 5.74541 17.5C7.32369 17.5 8.62472 16.2995 8.76336 14.7711C9.5152 14.2792 10.4856 14.274 11.2374 14.7605C11.3707 16.2942 12.6718 17.5 14.2554 17.5C15.9243 17.5 17.284 16.1514 17.284 14.4961Z" fill="#EDEBD7"/>
<path d="M17.3901 8.53175C16.697 8.23559 15.9825 7.98705 15.2626 7.78079L14.3562 3.29609C14.2975 3.02107 14.1216 2.77779 13.8763 2.63502C13.631 2.49221 13.3324 2.46048 13.0605 2.55038L12.4633 2.74606C10.8477 3.27491 9.06677 3.27491 7.45113 2.74606L6.85928 2.55038C6.58734 2.46048 6.28875 2.49221 6.04349 2.63501C5.79821 2.77778 5.62224 3.02107 5.56359 3.29608L4.65179 7.80722C3.95863 8.00818 3.27614 8.24618 2.60963 8.53175C2.09774 8.7486 1.86313 9.33033 2.08176 9.83275C2.30036 10.3352 2.88687 10.5679 3.39343 10.3563C7.59511 8.56878 12.4047 8.56878 16.6063 10.3563C16.7343 10.4092 16.8676 10.4357 16.9956 10.4357C17.3848 10.4357 17.7527 10.2082 17.918 9.83275C18.1366 9.33033 17.902 8.7486 17.3901 8.53175Z" fill="#EDEBD7"/>
</svg>
