<svg width="20" height="20" viewBox="0 0 20 20" fill="none" xmlns="http://www.w3.org/2000/svg">
<path d="M17.8407 2.47812C15.9322 2.53644 14.0384 2.83247 12.2032 3.35938C8.65007 -0.53125 3.72507 2.175 3.67507 2.20313C3.63599 2.22592 3.60228 2.25687 3.57623 2.29386C3.55018 2.33085 3.5324 2.37301 3.5241 2.41749C3.51579 2.46196 3.51717 2.5077 3.52812 2.55159C3.53907 2.59549 3.55935 2.63651 3.58757 2.67188C4.66569 4.00313 6.87194 4.33125 8.77507 4.33125C9.1313 4.33125 9.47507 4.31875 9.80007 4.30313C6.60632 5.91875 5.67194 8.1125 5.44069 8.8375C3.43132 9 1.83444 11.1594 1.83444 13.7906C1.78201 18.1735 6.24564 20.6933 8.68448 16.8843C7.1981 15.9041 6.36694 14.1817 6.34066 12.1156C6.33709 11.2971 6.49093 10.4855 6.79382 9.725C6.87029 9.53001 6.95901 9.34005 7.05944 9.15625C6.75934 9.005 6.43619 8.90467 6.10319 8.85938C6.44069 8.00313 7.65007 5.75 11.3657 4.32187C10.6762 5.20089 10.3079 6.28918 10.3219 7.40625C8.23066 7.61967 6.91513 10.0583 6.96574 12.1156C6.99691 14.4909 8.28485 16.738 10.6344 16.8469C12.6594 16.8469 14.3063 14.725 14.3063 12.1156C14.3063 9.64375 12.8251 7.60938 10.9469 7.40627C10.9428 7.19737 10.9542 6.98845 10.9813 6.78127C11.1001 5.83752 11.5969 4.17814 13.5782 3.65314C14.9888 3.34018 16.4249 3.15609 17.8688 3.10313C17.9505 3.09778 18.0269 3.06062 18.0815 2.99962C18.1361 2.93862 18.1646 2.85864 18.1609 2.77685C18.1573 2.69505 18.1217 2.61796 18.0618 2.56211C18.0019 2.50626 17.9225 2.47611 17.8407 2.47812ZM13.0469 12.425C13.0042 12.4287 12.9612 12.4234 12.9206 12.4095C12.88 12.3956 12.8428 12.3734 12.8113 12.3443C12.7799 12.3151 12.7548 12.2798 12.7378 12.2404C12.7208 12.201 12.7122 12.1585 12.7126 12.1156C12.7126 11.0125 12.3126 9.9625 11.6688 9.37187C11.6095 9.31542 11.5747 9.23798 11.5718 9.15615C11.5689 9.07432 11.5982 8.99461 11.6534 8.93412C11.7085 8.87363 11.7852 8.83716 11.867 8.83254C11.9487 8.82792 12.029 8.85551 12.0907 8.9094C12.8594 9.61563 13.3376 10.8438 13.3376 12.1156C13.3389 12.1949 13.3093 12.2716 13.2551 12.3293C13.2008 12.3871 13.1261 12.4214 13.0469 12.425Z" fill="#9BC880"/>
</svg>
