<svg
	width="331"
	height="1023"
	viewBox="0 0 331 1023"
	fill="none"
	xmlns="http://www.w3.org/2000/svg"
>
	<path
		d="M303.75 50.9154C306.961 47.2903 309.329 40.2261 310.5 30.2279C310.909 26.7298 311.054 24.6608 311.75 21.1791V20.9466C311.75 20.9466 311.416 20.598 311.219 20.1654C311.022 19.7327 310.844 18.1749 310.844 16.6966V14.0091L311.938 13.1341C312.957 12.3208 313 12.1621 313 10.4154C313 8.65617 313.077 8.50026 314.25 7.38414C314.929 6.73778 315.469 5.94854 315.469 5.63414C315.469 5.3197 315.851 4.51884 316.312 3.85289C316.779 3.17934 317.221 2.05194 317.312 1.29039C317.408 0.492241 317.464 0.167456 317.625 0.134139C317.721 0.114131 317.859 0.203189 318.062 0.352889C318.528 0.694806 318.658 1.12913 318.625 2.57164C318.585 4.32247 318.607 4.41519 319.906 5.63414C320.643 6.32537 321.523 7.29548 321.844 7.79039C322.199 8.33859 323.158 9.01674 324.312 9.54039C325.355 10.0131 326.644 10.7709 327.188 11.2279L328.188 12.0716L327.344 12.9466C326.648 13.6725 326.517 14.0869 326.562 15.2904L326.375 15.8397V17.4779C326.375 17.4779 326.555 22.3079 326.562 22.5L326.5 26L326.906 26.7591L329.531 29.2591L329.656 35.0716C329.744 39.4803 329.634 41.5612 329.25 43.7904C328.972 45.4041 328.572 48.8762 328.344 51.5091L327.969 55.6029L328.219 57.2904L328.969 59.1029C329.412 60.1926 329.687 61.5072 329.688 62.4779C329.688 63.358 329.839 64.5519 330.031 65.1029C330.332 65.9663 330.287 66.2553 329.688 67.3216C329.028 68.4947 329.021 68.6931 329.375 70.8841C329.66 72.6533 329.651 73.4052 329.375 74.0716C329.01 74.9523 329.132 81.2145 329.562 84.3529C329.708 85.412 329.605 86.1037 329.25 86.8529C328.963 87.4577 328.75 88.691 328.75 89.7904C328.75 91.0768 328.575 92.0939 328.156 92.9154C327.372 94.4534 327.355 95.5701 328.156 97.6029C329.362 100.661 328.056 102.845 324.438 103.822C322.286 104.402 318.89 105.93 317.688 106.853C317.282 107.164 316.712 107.415 316.438 107.415M303.75 50.9154L303.901 50.7418L305.071 49.1563M303.75 50.9154L302.844 51.8529L300.5 53L298 52.9466C296.205 52.7006 291.285 52.7031 289.812 52.9466C288.817 53.1114 288.626 53.3273 287.75 55.1029C287.214 56.1893 287.031 56.8825 287 56.9771C286.789 57.1821 286.925 57.2249 286.719 57.4466C285.462 58.795 283.889 59.8766 282.227 60.7279C281.717 60.9398 280.396 61.5061 279.312 61.8529C279.312 61.8529 278.894 62.0048 277.603 62.3063C276.276 62.6162 274.893 62.821 274.285 62.8216C273.488 62.8225 273.131 62.9162 272.531 62.9466H272.188C266.561 62.8305 261.003 60.6764 257.75 56.5404L256.781 53.7904C256.19 52.8335 256.136 52.4889 256.406 51.4779L256.719 50.3216L254.781 50.5091C252.987 50.6767 252.787 50.609 252.031 49.8529C251.055 48.8771 250.873 48.8737 250.156 49.6654C249.852 50.0018 249.114 50.355 248.5 50.4466C247.415 50.6087 242.694 51.5249 239.75 52.1654C237.986 52.549 237.438 53.628 236.313 52.6966C235.85 52.3133 235.382 52.096 235 52C234.42 51.8543 234.098 52.6966 233.7 52.6966C232.887 52.6966 231.936 53.8337 231.936 53.8337C225.206 55.1099 224.493 54.5115 219.688 53.9154C219.688 53.9154 217.47 53.5702 217.531 53.5091C216.5 53 216.757 52.7967 213.531 52.6029C209.407 52.3551 209.259 52.4094 209.25 54.1654C209.243 55.5842 206.494 67.2106 203.719 77.6341C201.827 84.7405 201.122 88.0426 200.625 91.8841C200.269 94.6335 199.969 97.0871 199.969 97.3529C199.969 97.7112 200.298 97.8529 201.219 97.8529L202.5 97.5M120.187 344.415C121.214 339.679 123.507 333.559 125.281 330.822C127.056 328.084 130.35 318.592 132.625 309.759C134.9 300.926 137.742 291.477 138.906 288.759C140.071 286.041 143.395 274.372 146.312 262.822C146.312 262.822 169.522 170.227 171.469 147.79C171.398 146.477 172.388 135.789 172.938 132.009C173.326 129.338 173.534 127.27 173.469 126.447C173.254 123.728 174.04 122.604 176.406 122.29C177.33 122.168 177.642 122.012 178 121.509C178.78 120.413 179.55 120.6 181.594 122.447C183.436 124.112 184.656 126.072 184.656 126.072C188.887 130.285 191.666 127.619 196.125 122.603C201.382 116.689 205.514 100.836 202.562 97.8841L202.5 97.5M120.187 344.415C118.261 353.302 116.251 358.045 96.7187 400.04C78.9854 438.167 42.9537 489.114 13.1875 518.165L0.9375 530.103L5.43749 541.634C7.91171 547.966 17.3323 575.933 26.375 603.79C35.4175 631.648 47.8908 665.576 54.0625 679.165C65.5795 704.523 71.7511 725.136 71.9062 738.759C71.9545 743.009 73.7044 747.916 75.8125 749.665C78.7637 752.114 79.3024 755.742 78.1562 765.415C76.7238 777.506 76.9591 778.169 84.5312 782.978C91.8892 787.65 119.375 868.228 119.375 868.228C119.375 868.228 153.563 973.792 154.875 998.384C155.324 1006.81 156.931 1016.01 158.438 1018.82C161.122 1023.84 161.278 1023.79 167.219 1016.73C170.553 1012.77 173.281 1008.47 173.281 1007.17C173.281 1005.86 176.342 1001.57 180.062 997.634C185.23 992.17 186.882 987.846 187.094 979.353C187.552 961.023 191.043 939.017 194.625 931.915C196.475 928.245 198.034 919.336 198.094 912.134C198.226 896.117 201.999 885.159 212.594 869.759L220.688 857.978L216.969 841.478C214.608 830.952 214.102 823.461 215.531 820.79C216.763 818.487 217.75 814.112 217.75 811.072C217.75 808.031 219.493 803.615 221.625 801.259C225.161 797.351 225.037 796.079 220.219 786.634C215.363 777.117 215.256 775.644 218.594 768.478C220.59 764.19 223.535 754.161 225.156 746.197C226.777 738.232 232.43 723.805 237.719 714.103C243.099 704.233 247.356 692.99 247.375 688.603C247.396 683.878 249.862 677.85 253.594 673.415C256.999 669.367 259.199 664.507 258.469 662.603C256.375 657.147 263.89 641.889 271.438 636.259C278.083 631.302 283.374 622.116 277.969 622.04C272.797 621.968 276.486 622.695 277.969 612.978C278.85 607.202 285.935 599.59 287.281 597.884C290.231 594.144 273.807 579.22 270.375 576.978C269.037 576.103 267.183 570.66 266.281 564.884C264.962 556.437 265.37 554.384 268.375 554.384C270.429 554.384 272.144 552.419 272.188 550.04M120.187 344.415C122.186 344.915 125.242 347.66 126.698 349.116C128.457 350.875 129.457 354.083 132.355 353.359C133.937 352.963 137.057 349.887 138.719 350.884C140.92 352.204 140.487 353.797 140.487 356.541C140.487 357.936 142.4 361.699 144.376 359.723C145.93 358.168 145.437 355.818 145.437 353.359C145.437 351.294 146.782 349.187 149.326 349.823C152.34 350.577 151.479 349.888 153.922 348.055C156.858 345.854 157.019 347.706 158.872 350.177C159.809 351.427 161.995 354.891 163.468 351.945C164.554 349.771 163.826 347.34 164.882 345.227C165.658 343.676 167.627 341.317 168.064 339.57C168.437 338.077 168.944 333.56 166.296 333.56C162.74 333.56 161.923 331.662 159.932 329.671C158.033 327.771 158.82 326.678 160.993 326.135C162.804 325.682 162.815 323.578 162.407 321.539C162.113 320.068 161.755 316.943 163.821 316.943C165.893 316.943 169.829 317.294 170.539 318.003M272.188 550.04C272.231 547.662 273.715 543.847 275.469 541.54C279.303 536.494 278.57 523.258 273.844 511.947C271.787 507.025 271.168 501.691 272.312 498.759C273.369 496.052 274.311 488.063 274.406 481.009C274.502 473.955 275.524 467.615 276.656 466.915C277.788 466.215 278.224 462.308 277.625 458.228C276.922 453.44 278.39 447.822 281.75 442.384C284.614 437.75 286.938 431.847 286.938 429.259C286.937 422.523 301.137 406.054 305.5 407.728C308.365 408.827 308.846 406.991 307.938 398.353C307.315 392.443 305.703 383.785 304.344 379.134C302.64 373.306 302.679 369.703 304.5 367.509C306.315 365.322 306.424 358.759 304.844 346.509C302.793 330.616 303.19 326.892 308.312 312.415C313.548 297.616 313.93 293.433 312.625 265.29C311.784 247.16 312.244 229.863 313.75 223.384C315.28 216.798 315.422 211.265 314.094 209.665C311.66 206.733 313.566 196.134 316.531 196.134C319.074 196.134 317.573 184.213 314.562 180.572C314.11 180.024 313.736 178.933 313.459 177.5M272.188 550.04L268.498 549.477C266.329 549.477 259.991 550.113 258.22 549.227C256.364 548.299 254.251 547.813 252.21 547.813C248.856 547.813 244.509 548.538 241.25 547.813C238.152 547.125 234.578 546.753 231.35 546.753C228.757 546.753 226.165 546.753 223.572 546.753C220.626 546.753 217.679 546.753 214.733 546.753C211.606 546.753 209.973 546.718 207.662 544.985C205.316 543.226 203.066 540.766 203.066 537.56C203.066 536.261 203.69 531.93 202.712 531.196C200.804 529.765 200.108 527.436 197.409 530.135C195.622 531.923 193.848 533.233 192.459 535.085C190.479 537.725 189.705 536.5 186.095 536.5C183.489 536.5 181.564 535.367 179.024 534.732C177.163 534.266 174.418 534.014 173.014 532.61C171.903 531.5 166.192 529.574 165.589 528.368C164.361 525.912 163.432 524.689 162.761 522.004C162.238 519.914 159.932 516.069 159.932 514.226C159.932 511.188 159.2 510.237 158.518 507.508C157.972 505.323 156.664 503.576 154.629 502.558C152.595 501.541 150.741 501.144 148.265 501.144C145.866 501.144 145.901 499.46 144.376 498.316C142.801 497.134 140.36 495.689 139.78 493.366C139.394 491.824 138.719 490.083 138.719 487.709C138.719 485.6 138.135 482.713 139.426 480.992C141.966 477.605 138.366 479.198 138.366 476.749C138.366 474.274 137.888 471.729 139.426 469.678C140.77 467.886 142.033 466.717 143.669 465.082C145.951 462.8 142.823 463.467 142.255 461.193C142.123 460.666 141.882 455.703 141.548 455.536C140.647 455.086 137.929 453.497 137.305 454.122M316.438 107.415C316.163 107.416 315.125 107.986 314.125 108.665L312.5 109.5C303.607 115.962 298.744 124.77 304.188 128.134L305.844 128.353C306.851 128.89 307.841 129.53 308.031 129.759C308.424 130.232 309.219 135.103 309.219 135.103C309.198 135.124 309.5 135.5 309.5 135.5C310.287 137.032 310.5 137.5 310.5 137.5L311 138.557C311 138.557 313.191 141.08 314.438 143.603C315.646 146.049 315.896 146.836 316.125 149.259C316.271 150.807 316.457 152.298 316.562 152.572C316.679 152.875 316.328 153.72 315.656 154.697C314.372 156.564 314.372 156.671 315.188 158.009C315.967 159.288 315.96 159.415 315.125 159.197C314.752 159.099 314 159.5 314 159.5C313.821 161.779 313.338 164.187 313.125 166.478C312.897 168.926 312.869 171.398 313 173.603C313.087 175.047 313.243 176.378 313.459 177.5M316.438 107.415C315.674 106.63 315.399 104.007 314.082 102.689C312.656 101.264 310.384 103.014 309.839 104.104C308.641 106.5 307.567 105.668 305.95 107.286C304.403 108.833 305.624 110.114 302.414 110.114C299.525 110.114 298.009 110.305 296.05 108.346C294.453 106.749 293.604 105.518 291.101 105.518C288.437 105.518 286.567 105.123 284.737 103.75C283.96 103.167 283.745 102.909 283 102.5M267.33 62.3245C266.073 63.0962 264.592 65.5588 263.17 66.9805C261.364 68.7865 260.432 70.7694 259.988 72.9909C259.512 75.3728 261.251 76.375 262.109 77.2335C263.058 78.1819 267.507 77.9406 269.18 77.9406C271.519 77.9406 273.158 76.1064 274.484 75.1122C275.838 74.0967 279.022 74.9066 280.141 75.4657C281.49 76.1404 281.555 78.5009 281.555 80.0619C281.555 82.0154 281.552 83.9624 281.201 85.7188C281.007 86.6886 284.383 88.2212 284.383 89.9614C284.383 92.6315 281.555 92.2663 281.555 94.9112C281.555 97.3237 281.747 99.8917 282.615 101.629L283 102.5M277.312 127.085C277.312 124.303 275.634 124.261 275.191 122.488C274.611 120.171 272.716 119.204 272.716 117.185C272.716 114.026 273.42 113.29 272.009 110.468C270.719 107.887 271.52 107.112 272.716 105.518C273.069 105.046 273.36 104.52 273.777 104.104C275.007 102.873 276.323 101.275 278.726 101.275C280.247 101.275 281.906 101.9 283 102.5M277.312 127.085C277.312 128.81 276.251 130.177 276.251 132.388C276.251 135.705 279.52 135.484 276.251 138.752C274.9 140.103 273.052 142.31 272.009 143.702C270.62 145.553 269.887 144.813 269.887 147.591C269.887 150.442 271.73 151.359 273.777 152.894C275.773 154.392 276.821 155.585 278.373 157.137C280.343 159.106 282.262 159.934 282.262 163.147C282.262 165.191 284.03 166.297 284.03 168.804C284.03 170.622 281.81 170.166 281.91 171.61M277.312 127.085C276.5 128 274.472 128.145 272.362 128.145C269.389 128.145 268.609 127.302 266.352 129.559C265.007 130.904 263.503 131.944 262.109 133.802C260.639 135.762 260.156 135.57 257.513 135.57C254.976 135.57 252.563 134.648 252.563 131.681C252.563 130.841 253.092 126.906 252.563 126.377C251.009 124.823 250.844 123.025 249.381 121.074C247.931 119.14 245.85 117.892 243.371 117.892C242.413 117.892 238.775 117.407 238.775 118.599C238.775 119.824 239.277 122.694 238.421 123.549C237.945 124.026 235.642 126.122 235.593 126.024M235.593 126.024C234.454 123.746 233.134 123.91 230.997 122.842C229.269 121.978 225.846 121.074 223.925 121.074C221.686 121.074 219.447 121.074 217.208 121.074C215.686 121.074 211.198 120.037 211.198 118.246C211.198 115.983 210.844 114.613 210.844 112.589C210.844 110.364 210.49 107.962 210.49 105.871C210.49 103.739 209.318 102.931 207.662 101.275C206.521 100.134 205.675 98.3372 203.773 97.3861L202.5 97.5M235.593 126.024C234.589 126.777 234.179 125.09 234.179 126.731C234.179 129.898 235.665 129.848 236.3 132.388C236.892 134.756 237.568 136.423 235.946 138.045C234.534 139.457 231.35 140.596 231.35 142.641V149.005C231.35 151.752 229.184 153.458 227.107 155.015C225.302 156.369 224.206 158.27 222.511 159.965C220.866 161.61 218.752 163.688 218.269 165.622C217.873 167.204 217.915 169.532 217.915 171.632C217.915 173.696 218.016 175.875 220.744 175.875C223.005 175.875 225.322 175.694 227.461 176.228C229.043 176.624 231.964 178.226 233.118 179.764C234.08 181.046 233.098 183.643 234.532 184.36M268.12 191.078C269.755 189.443 270.818 189.31 273.423 189.31C274.268 189.31 279.08 189.691 279.08 188.249C279.08 185.172 277.122 184.661 276.605 182.592C276.253 181.184 275.898 178.787 275.898 176.936C275.898 175.098 275.296 172.234 276.605 170.925C277.866 169.664 280.838 173.059 281.908 171.632L281.91 171.61M268.12 191.078C266.594 192.603 265.466 193.673 264.231 195.32C263.369 196.47 264.5 200.456 264.938 201.331C266.107 203.669 266.609 203.516 269.18 204.159C271.097 204.638 272.43 207.056 273.423 208.048C275.933 210.558 278.245 209.457 281.201 211.23C283.171 212.412 285.058 213.672 286.504 215.119C288.04 216.655 288.628 218.304 290.04 219.716C291.364 221.039 291.101 224.858 291.101 226.787C291.101 228.411 291.454 230.582 291.454 232.443M268.12 191.078C266.543 189.914 265.219 187.207 262.463 187.896C260.658 188.347 259.194 187.894 257.867 189.664C255.856 192.345 254.719 192.138 251.503 192.138C249.223 192.138 247.723 191.187 246.199 189.664C244.541 188.005 242.219 187.143 240.189 186.128C238.404 185.236 235.82 185.004 234.532 184.36M291.454 232.443C291.454 233.687 294.794 234.88 295.697 236.686C296.769 238.83 300.231 241.605 302.414 242.697C304.325 243.652 305.243 243.097 305.243 240.575C305.243 238.365 307.43 239.001 309.485 239.515C309.828 239.6 311.647 241 312 241M291.454 232.443C290.144 232.443 287.676 233.504 285.09 233.504C282.456 233.504 282.969 234.24 282.969 236.686C282.969 238.694 286.806 237.144 285.09 240.575C284.272 242.212 281.251 240.892 279.787 241.989C277.69 243.562 275.191 245.503 275.191 248C275.191 250.211 270.467 249.414 269.18 249.414C266.091 249.414 264.743 249.32 262.816 251.889C261.26 253.964 259.739 254.339 259.281 257.546C259.009 259.448 259.215 261.879 259.634 263.556C260.375 266.519 254.401 267.092 252.563 267.092C250.768 267.092 248.505 264.162 246.906 263.203C244.607 261.823 241.987 265.14 239.835 265.677C236.69 266.464 234.552 267.825 232.411 264.97C229.773 261.454 225.741 259.5 221.5 259.5M234.532 184.36C234.532 184.36 231.426 185.067 229.936 185.067C227.809 185.067 226.565 186.152 225.693 187.896C224.614 190.055 224.439 190.339 222.511 191.785C220.622 193.202 217.802 190.257 216.854 189.31C215.218 187.674 214.128 187.693 211.905 188.249C209.597 188.826 210.412 191.628 211.198 193.199C212.304 195.412 213.773 194.803 211.198 196.735C209.612 197.924 208.723 200.149 208.723 202.038C208.723 203.685 204.915 202.717 205.894 206.634C206.509 209.091 209.003 211.437 210.137 213.705C211.415 216.261 206.53 217.948 204.834 217.948C202.329 217.948 199.82 219.362 197.055 219.362C194.052 219.362 191.872 220.657 189.984 222.544C188.2 224.329 186.809 227.494 183.974 227.494C180.531 227.494 178.407 227.802 175.489 229.262L173.367 230.322C170.211 231.9 171.636 235.894 168.771 237.04C166.014 238.142 162.585 238.056 159.579 238.807C156.761 239.512 155.082 239.337 152.188 239.337M221.5 259.5C220.385 259.5 216.837 254.148 214.38 253.657C213.677 253.516 212.965 253.421 212.258 253.303C209.311 252.812 208.369 250.034 208.369 246.939C208.369 244.263 208.442 241.696 209.076 239.161C209.854 236.05 208.216 235.119 206.248 233.151C203.826 230.728 201.488 228.336 199.53 225.726C198.489 224.337 199.213 220.923 198.823 219.362M221.5 259.5C219.445 260.322 218.977 260.728 215.44 260.728C214.065 260.728 212.677 263.569 212.258 264.617C211.724 265.952 214.905 268.325 215.794 269.213C218.125 271.544 220.39 268.576 220.39 273.102C220.39 275.264 218.305 275.833 216.501 276.284C216.362 276.319 215.892 282.196 215.087 283.002C213.578 284.51 213.148 285.879 211.905 287.951C210.833 289.737 208.474 289.48 206.601 289.012C204.023 288.367 203.419 292.784 203.419 294.669C203.419 295.723 200.887 298.32 200.237 299.619C199.037 302.019 198.455 303.999 196.702 306.336C195.857 307.462 191.965 309.683 190.338 310.225C188.061 310.984 185.534 310.026 183.267 310.932C182.038 311.424 180.438 315.469 180.438 316.943C180.438 318.969 177.836 321.695 177.256 324.014C176.594 326.664 175.175 327.746 175.842 331.085C176.542 334.581 181.092 330.077 181.499 329.671C182.595 328.575 187.354 330.693 188.924 331.085C191.732 331.787 193.029 334.339 195.995 335.328C198.971 336.32 200.391 334.466 202.359 332.499C204.189 330.669 207.024 329.565 209.43 328.964C212.074 328.303 212.51 327.966 215.087 328.61C218.092 329.361 219.565 331.438 222.865 331.438C224.932 331.438 226.14 332.146 228.522 332.146C231.347 332.146 231.281 331.279 233.471 330.731C235.306 330.273 236.934 330.024 239.128 330.024C241.963 330.024 244.285 330.561 246.906 331.085C249.02 331.508 252.903 332.577 254.685 333.913C257.842 336.281 258.22 335.226 258.22 339.57C258.22 342.092 258.608 342.946 260.342 343.813C261.484 344.384 266.784 342.025 268.12 341.691C268.348 341.634 268.591 341.691 268.827 341.691C270.737 341.691 272.838 341.338 274.837 341.338C277.643 341.338 277.918 343.005 275.898 344.52C273.789 346.102 274.371 347.617 275.898 348.763C278.593 350.784 278.807 352.101 282.262 351.237C284.945 350.567 286.862 347.277 290.04 346.641C292.005 346.248 293.712 345.934 296.05 345.934C298.688 345.934 301.284 345.899 303.475 346.995C303.958 347.236 304.214 347.5 304.969 347.5M279.236 351.296C279.236 351.296 276.957 355.133 276.605 356.541C276.172 358.273 274.009 360.026 273.423 361.491C272.11 364.772 272.125 364.406 274.837 366.44C276.626 367.782 276.251 368.634 276.251 371.036C276.251 373.158 276.251 375.279 276.251 377.4C276.251 379.907 277.929 380.929 278.373 382.704C278.608 383.645 276.406 385.929 275.898 386.946C274.817 389.109 272.572 389.421 270.241 389.421C267.648 389.421 265.056 389.421 262.463 389.421C261.38 389.421 261.058 385.711 258.927 385.179C256.335 384.531 255.418 383.083 253.624 381.289C251.526 379.192 250.117 378.447 247.26 379.875C245.354 380.828 243.688 382.853 241.603 381.289C239.572 379.766 237.849 378.657 235.593 377.754C233.133 376.77 230.417 377.047 227.815 377.047C225.481 377.047 221.936 376.759 225.34 378.461C226.436 379.009 225.573 383.187 225.34 384.118C225.043 385.303 220.155 383.859 219.683 383.764C219.452 383.718 219.211 383.764 218.976 383.764C216.495 383.764 214.641 383.011 212.612 381.997C210.758 381.07 210.472 378.815 207.662 378.815C205.115 378.815 203.904 378.684 202.712 379.875C200.716 381.872 201.2 384.57 198.823 386.946C196.572 389.198 197.13 390.96 194.934 387.3C193.505 384.917 191.493 383.151 189.631 381.289C187.903 379.562 188.485 376.199 189.277 374.218C189.958 372.516 194.34 370.216 195.641 368.915C196.805 367.751 199.554 366.416 200.591 365.38C202.427 363.544 202.359 361.501 202.359 359.016C202.359 358.524 197.841 354.301 197.055 353.712C195.35 352.433 193.97 350.07 192.459 348.055C190.731 345.751 189.891 344.541 190.691 341.338C191.132 339.576 190.649 336.573 190.338 335.328C189.823 333.268 187.323 331.252 186.095 330.024M197.055 388.714C195.495 389.885 195.96 392.638 194.581 394.017C193.006 395.592 192.495 396.492 189.631 396.492C187.453 396.492 185.815 394.831 183.974 394.371C181.254 393.691 180.085 394.381 180.085 397.199C180.085 398.967 180.085 400.735 180.085 402.503C180.085 402.732 175.637 401.368 174.782 401.796C172.855 402.759 175.482 404.978 171.6 404.978C169.738 404.978 166.344 400.924 164.175 400.381C162.12 399.868 160.431 400.663 158.872 401.442C156.961 402.398 154 405.018 153.568 406.745C153.014 408.964 151.312 410.82 150.74 413.109C150.207 415.242 149.918 416.759 148.619 418.059C147.321 419.357 143.478 418.059 141.901 418.059C139.058 418.059 137.899 415.841 137.305 413.463C136.768 411.316 137.003 408.774 136.598 406.745C136.055 404.032 134.379 402.406 132.709 400.735C130.294 398.32 128.507 398.614 125.284 398.614C122.42 398.614 119.963 398.577 118.567 395.785C117.832 394.316 115.68 391.145 114.324 390.128C112.408 388.692 110.449 385.193 108.667 383.411C107.643 382.387 106.769 381.076 105.908 380.214M139.5 286.5C141.251 286.5 141.735 290.802 142.608 292.548C143.515 294.361 144.599 295.207 145.083 297.144C145.588 299.162 150.589 298.558 152.154 298.558C153.941 298.558 155.708 297.144 158.165 297.144C160.356 297.144 162.587 296.617 164.175 298.204C165.067 299.097 165.589 302.48 165.589 303.861C165.589 305.905 165.723 307.482 164.882 309.165C163.757 311.414 161.358 310.8 159.932 312.7C158.347 314.814 161.222 315.237 162.761 314.468C164.633 313.532 166.414 312.848 168.418 312.347C170.727 311.769 170.185 315.045 170.185 316.589C170.185 319.43 171.513 319.064 174.074 319.064C176.147 319.064 177.363 319.771 179.378 319.771M156.75 403.563C154.648 403.038 160.378 406.222 161.347 408.16C162.424 410.315 163.821 410.043 163.821 412.756C163.821 415.395 163.617 415.914 161.7 417.352C160.046 418.592 163.21 421.088 163.821 421.241C166.691 421.959 167.447 419.12 169.832 419.12C172.529 419.12 173.588 421.78 176.196 422.302C178.098 422.682 179.908 420.711 180.792 419.827C182.017 418.602 184.714 419.12 186.449 419.12C188.499 419.12 189.721 422.453 190.691 424.069C192.474 427.041 191.584 428.981 194.934 431.494C196.588 432.735 199.617 432.908 201.652 432.908C204.719 432.908 206.23 436.426 207.662 437.858C208.404 438.601 213.149 437.95 214.38 438.565C216.738 439.744 216.147 441.118 216.147 443.868C216.147 446.709 215.114 447.404 219.329 447.404C221.773 447.404 226.047 451.774 226.047 448.465C226.047 445.925 227.345 444.781 229.582 444.222C231.966 443.626 232.621 448.532 233.118 449.525C234.147 451.584 234.124 453.578 235.593 455.536C236.92 457.305 241.575 457.628 243.017 459.071C244.131 460.185 248.804 459.964 250.442 461.193C253.169 463.238 256.066 464.535 258.574 465.789C260.276 466.64 259.634 469.682 259.634 471.446C259.634 474.166 258.095 474.753 256.452 476.395C254.404 478.444 254.672 480.334 253.978 483.113C253.3 485.823 258.072 487.937 259.988 488.416C263.474 489.288 264.473 488.687 267.413 490.891C268.071 491.385 270.151 493.483 270.784 494.116L273 495.5M137 413.5C137 413.5 133.416 415.324 133.416 417.352C133.416 419.106 133.988 421.061 135.184 422.655C136.645 424.604 139.17 424.813 139.78 427.251C140.278 429.245 139.702 431.183 140.133 432.908C140.844 435.75 137.253 438.25 135.891 439.272C134.658 440.197 130.624 440.059 129.527 440.333C125.674 441.296 134.016 444.875 134.123 444.929C136.674 446.205 137.658 449.363 137.658 452C137.658 454.543 136.074 453.768 133.769 453.768C131.227 453.768 129.545 452.916 127.052 453.414C125.374 453.75 122.481 456.584 121.041 457.304C119.091 458.279 115.729 456.596 113.617 456.596C111.486 456.596 111.313 455.316 109.021 455.889C107.884 456.174 108.208 460.202 107.96 461.193C107.533 462.9 104.264 465.162 103.01 465.789C101.065 466.761 104.717 467.849 105.839 468.971C106.508 469.641 105.839 474.556 105.839 475.688C105.839 477.733 104.005 479.194 102.657 480.992C101.253 482.863 107.96 483.248 107.96 485.588C107.96 488.899 105.973 489.123 103.364 489.123C100.31 489.123 98.9673 487.74 97.3534 485.588C93.1074 479.926 93.569 484.942 91.6965 488.063C90.3744 490.266 87.6625 492.867 85.6861 490.891C82.2353 487.44 83.1402 490.632 81.0899 493.366C79.0899 496.033 75.4859 497.609 72.2511 497.609C71.6618 497.609 71.0726 497.609 70.4833 497.609C67.6808 497.609 65.8674 495.134 62.7051 495.134C59.9222 495.134 58.7427 492.305 55.6341 492.305C53.0294 492.305 51.544 494.78 48.9165 494.78C46.0552 494.78 45.9745 491.803 42.5526 492.659C38.7965 493.598 37.4403 496.357 35.128 498.669C34.5254 499.272 35.128 503.862 35.128 505.033C35.128 507.091 30.5729 504.992 29.1175 506.447C28.0502 507.515 28.0041 511.308 27.7033 512.811C27.2079 515.289 23.4389 515.493 25.9356 518.822L26.2891 519.175C27.538 520.841 31.2238 519.533 32.6531 519.175C34.404 518.738 36.7584 517.476 38.3099 516.701C40.7837 515.464 40.2678 520.209 39.7241 521.297C38.5877 523.57 34.7865 521.602 34.0673 524.479C32.9332 529.015 39.449 524.99 37.2493 530.489C35.6939 534.378 32.7957 533.353 29.8247 532.61C26.6139 531.808 23.8184 531.019 20.6323 531.55C18.4499 531.913 17.5678 534.221 16.3896 535.792C14.8937 537.787 13.7873 539.809 11.7934 541.803C9.58289 544.013 8.98617 544.62 6.91797 545.654M313.459 177.5L313 177.5C312 177 311.639 176.614 310.193 175.168C308.355 173.33 306.062 174.163 303.829 173.047C301.564 171.914 299.546 171.632 296.758 171.632C294.172 171.632 292.349 173.4 290.394 173.4C289.203 173.4 282.607 173.383 282.262 172.693C282.036 172.24 281.929 171.889 281.91 171.61"
		stroke="#646464"
		stroke-width="1"
	/>
</svg>
