<svg width="124" height="330" viewBox="0 0 124 330" fill="none" xmlns="http://www.w3.org/2000/svg">
  <g clip-path="url(#clip0_478_948)">
    <path
      d="M16.3848 159.798L18.2031 157.2L18.9859 155.95M16.3848 159.798L16.6205 160.139M16.3848 159.798L13.0809 164.015L11.4857 165.76L10.9217 166.413L10.5008 166.996L8.78811 169.04L7.71906 170.202L6.36801 171.597L5.703 172.201L4.91959 172.9L2.44056 175.523L0.281404 177.609L0.12207 177.73L2.95043 186.981L8.93474 206.633L13.0763 218.632L19.4653 231.909L21.5656 240.552L21.3551 245.078L24.5034 248.729L23.005 252.914L23.1902 255.458L28.2535 258.734L29.7308 264.23L35.9768 281.712L38.3295 288.137L38.178 289.386L45.5982 309.991L45.5477 313.95L46.8483 316.19L47.1766 317.735L46.8357 319.979L46.1538 322.223L46.4442 324.613L46.7894 325.987L47.7448 327.773L49.5756 329.871L49.8534 329.738L50.1775 329.372V329.168L50.3206 329.055L50.5816 328.689L50.7625 328.577V328.235L51.0445 327.96L51.1035 327.731L51.3644 327.573L51.5875 327.323V327.257H51.7474L51.9284 326.961L51.9873 326.62L52.0673 326.462L52.2483 326.395L52.2904 326.283H52.4713L52.4924 326.17L52.5934 326.058L52.6355 325.829L52.7155 325.804L52.7744 325.575H52.9343L53.1153 325.758L53.4183 325.737L53.5614 325.783L54.2643 323.818L55.043 322.273L56.1457 321.007L57.442 320.062L58.3932 318.913L58.3722 317.31L58.1828 315.574V312.801L59.4202 307.705L59.6306 306.044L59.4202 304.816L59.7443 303.267L61.8824 299.037L61.6551 292.592L63.1661 286.655L68.7807 278.686L66.5079 268.739L67.8927 265.704L67.6443 264.055L68.1073 262.631L69.7193 260.866L69.9508 259.879L69.5678 258.589L67.0551 253.921L67.3455 252.801L68.3472 251.377L68.8481 249.895L70.4895 242.372L70.6621 241.002L72.8002 236.913L73.8777 235.927L74.2649 234.082L76.0452 230.868L77.0722 228.507L77.0764 225.118L77.7162 223.386L78.7979 222.091L80.1868 221.596L80.5572 219.918L80.1952 218.544L80.2162 217.037L82.1565 212.807L84.8839 211.037L86.1423 209.897L86.1466 208.177L85.5531 206.553L85.3847 205.196L85.6794 203.497L88.453 199.263L88.9034 197.735L89.3916 195.595L89.32 194.296L88.9581 192.556L88.3815 191.332L85.1448 187.023L84.3157 185.241L84.6861 183.559L85.4647 182.201L86.3023 180.519L89.0465 175.64L91 172.5C91.1667 171.833 91.6 170.3 92 169.5C92.5 168.5 93.5 165.5 94 164.5C94.4 163.7 94.8333 161.833 95 161L96.3161 157.748V152.412V150.638C96.7108 148.709 97.5 144.403 97.5 142.611C97.5 140.819 97.8333 140.432 98 140.462V136.769V134.883V132.394C98 131.727 98 130.163 98 129.233C98 128.304 98 127.866 98 127.764L97.5 124.304L98.1376 119.528V117.842L99 114.016L98.5 111.372L99 109.711L98.5 106.876V105.822V104.436L99 102.65L98.5 101.272L98.1376 100.543L98.5 99.1565L98.1376 97.3037L99.5 96.6667L99 93.7523L99.1857 92.2243L98.5 90.3924C98.7286 89.5949 99.1485 88 99 88C98.8515 88 99.0619 87.6667 99.1857 87.5L99 87C99 86.8333 98.9 86.4 98.5 86C98 85.5 98.1376 86 98 86C97.8899 86 97.9541 85.6667 98 85.5C97.8333 85.1667 97.5 84.4 97.5 84C97.5 83.5 98 83.5 98 83C98 82.6 98.0918 82.8333 98.1376 83L99 82.5L99.5 82V81H99.1857L99 80V78.5L98.5 78L99.1857 77L98.5 76.5L99 75.5L98.5 75L99 74V73L98 71.5L97.5 70.5L98 70L97.5 69L98.1376 68.3717L99.1857 67.5848L99.8254 67.41L100.002 67.206L99.9685 66.6855L100.789 66.3649L100.655 65.17L101.126 64.6371L103.171 63.7544L104.038 63.2007L105.836 63.0758L106.353 62.7427L107.077 62.5262L108.231 61.7185L109.274 60.6735L110.928 60.4528L111.227 59.2995L111.505 58.6625L111.867 58.3586L112.62 58.2712L114.203 57.6258L114.662 57.8839L114.729 58.1671L116.993 55.5649L118.774 52.4048L119.952 51.1558L121.013 48.8409L122.326 46.5718L122.604 46.0971L122.936 45.1895L122.928 44.7232L122.68 44.1278L121.417 42.3958L120.794 36.7293L120.415 35.5136L120.626 32.8323L120.259 31.3418L120.432 30.8963L120.739 30.6506L122.187 31.0295L123.004 30.9338L123.391 30.7089L123.492 30.5008L123.412 30.1302L122.591 29.2101L122.427 28.7479L122.562 28.3899L123.719 27.3781L123.892 25.1424L122.364 22.9524L121.813 22.6984L120.819 22.5943L120.217 22.3778L120.078 21.4535L120.31 20.9955L120.958 20.3002L121.232 19.6049L121.375 18.9263L121.282 17.9229L120.798 16.1867L120.554 15.7745L120.087 15.125L119.014 14.2216L118.475 13.5845L119.308 12.1731L119.418 11.5902L119.068 8.12206L119.291 6.57325L119.91 4.9828L121.35 3.35488L122.111 2.11417L122.372 1.0275L122.271 0.411303L121.897 0.124023L117.873 2.30152L116.77 3.09258L116.152 4.07516L115.811 6.25266L115.588 6.92715L115.163 7.50171L113.811 8.58837L112.355 9.18791L111.252 9.37527L109.434 9.22538L108.984 9.40025L108.378 9.9415L107.3 11.6444L106.555 12.3563L104.333 13.672L102.229 14.6504L101.888 15.0917L101.614 15.7662L101.345 16.0202L101.063 15.9327L99.3456 13.5096L98.8363 13.0974L98.6637 13.2806L97.9693 14.7961L97.2917 15.6829L96.8708 16.0327L96.2521 17.4274L96.2184 18.0936L96.4793 19.2594L96.5383 20.2961L96.1805 21.2495L95.7175 22.0489L95.263 24.1223L95.1157 25.9875L94.7537 26.8411L93.3732 27.4198L93.209 27.7778L93.1122 28.8562L92.9439 29.0602L91.7149 29.5182L90.4354 29.2142L90.1197 29.2475L89.5221 29.6805L89.1643 30.1635L87.9269 31.3459L87.405 31.6207L85.4142 31.7748L83.5707 32.5908L83.1498 32.4701L82.0555 31.8289L81.3737 31.0545L80.1531 28.7563L78.7137 28.4232L75.919 28.8104L73.2337 28.8978L72.3962 29.1684L71.9795 29.6139L71.7269 29.7222L69.1595 29.2809L66.8741 29.4724L63.6375 29.5182V30.3259L63.6964 30.3967V30.659L63.6164 30.8005L63.5744 31.5833L63.4944 31.7498L63.4733 32.2952L63.3723 32.366L63.3934 32.6283H63.3344L63.3765 32.8656L63.2376 33.0779L63.2797 33.1945L63.2208 33.386L63.2629 33.4318L63.0609 33.5984V33.7441L63.1408 33.7899L62.9388 34.1438L62.8967 34.4977L62.7957 34.6851L62.7368 35.0389L62.5979 35.3221L62.64 35.5594L62.539 35.6052L62.56 35.676L62.438 35.9383L62.459 36.1756L62.358 36.3629V36.671L62.2991 36.7168L62.358 36.8334L62.379 37.1665L62.097 37.6869L62.0381 38.0408L61.9581 38.1116V38.7486L61.8361 38.7944V39.0067L61.6551 39.4564L61.6762 39.573L61.5962 39.8561V40.0934L61.5541 40.1184L61.5751 40.4015L61.5162 40.5431L61.4952 41.23L61.2132 42.3875L61.1711 43.0037L60.847 43.853V44.0404L61.028 44.0154L61.1711 44.0612V43.8738L61.2511 43.8031L61.491 43.828L61.6509 43.9446L61.7898 44.1528L61.9918 44.5608L61.9708 45.6017L61.7898 46.5218L61.8108 46.6176L61.6088 47.3046L61.6509 47.4003L61.5499 47.4711L61.3899 47.9207L61.411 48.0165L61.331 48.0623L61.15 48.6535L61.1921 48.8201L61.0701 48.8659L60.3462 50.5437L59.9211 51.1599L59.6391 51.4181L59.517 51.6762L59.416 51.772V51.8885L59.2771 51.9593V52.0551L59.155 52.0801L59.0751 52.2466L58.9362 52.2716L58.2922 52.6963L57.9681 52.792L58.0902 52.8628L58.2501 52.8378L58.2922 53.0751L58.4942 53.1001L58.5532 53.1959L58.5321 53.2666L58.1281 53.3832L58.0691 53.0043L57.7451 52.792L57.6651 52.817L57.724 52.9835L57.5009 53.0085L57.3999 53.0793H57.139L57.059 52.8919L56.9201 52.8461L56.8612 52.3965L56.7013 52.1592L56.5792 52.1342L56.5582 52.18V52.2757L56.6592 52.3715L56.6171 52.5131H56.5161L56.4782 52.3007H56.3982V52.538L56.3183 52.5838L56.2762 52.4173L56.1541 52.2757L56.0741 52.2508L56.0152 52.1342L55.5901 51.9218L55.6112 51.8261L55.5312 51.8011L55.4891 51.7053L55.3881 51.6804L55.548 51.6346L55.91 51.8927L56.213 51.9885L56.7181 52.0343H56.7981L56.958 51.9177L57.0001 51.9635L57.2442 51.8677V51.7969L56.7181 51.9385L56.1752 51.9135L56.0741 51.7969V51.7262L55.8511 51.7012L55.4891 51.5596L55.3881 51.4639H55.2071L55.0261 51.1349L54.7652 51.0184H54.5842L54.5253 51.1141L54.4664 51.0891L54.4074 51.1349L54.3275 51.2765L53.9655 51.4639L53.7045 51.4389L53.4815 51.4847L53.0395 51.9094L52.8586 51.8636L52.7365 52.0051L52.8165 52.1467L52.7155 52.2632V53.0168L52.7744 53.2292L52.8543 53.3L52.7954 53.4873L52.8543 53.5123V53.5831L52.7954 53.6081L52.7365 53.5373L52.6944 53.6081H52.6355L52.7365 53.7954L52.7575 54.0785L52.6986 54.6448L52.6776 54.6906H52.5766L52.6565 55.0694L52.5555 56.2727L52.4755 56.46L52.4335 56.7889V57.5217L52.3535 57.8298L52.2104 59.4827L52.0505 59.8616L51.9705 60.7359L51.8316 60.9025L51.8905 61.1148L51.8105 61.4687L51.6674 61.7768L51.4654 62.0349L51.1834 62.01L51.0235 62.1765V62.2931L50.8004 62.5512V62.7386L50.6784 63.0925V63.2798L50.7794 63.3506L50.8004 63.4921L50.6784 63.5879L50.6994 63.7544L50.6573 63.8002V63.9168L50.7373 63.9876V64.0584L50.6573 64.2249L50.6784 64.9327L50.5563 65.7113L50.5353 66.4649L50.5142 66.5606L50.3332 66.7272L50.3543 67.106L50.2533 67.6265L50.3753 67.6973L50.2364 67.9346L50.1144 68.455L50.0723 69.1378L49.9713 69.3751L49.8703 69.4001L49.7903 70.1537L49.7103 70.391L49.7692 70.4368V70.6492L49.6893 70.8157L49.7103 71.2154L49.6514 71.3819L49.7103 71.4777L49.5883 71.6442L49.4662 71.9981V72.1147L49.5462 72.1605L49.4872 72.4894L49.3441 72.631V72.7725L49.4872 72.9141L49.5293 73.1015L49.3694 73.4096L49.4115 73.5761L49.3694 73.6719L49.2894 73.6261L49.1295 74.2131L49.0074 74.3547L48.9864 74.542L49.0453 74.6586L48.8054 75.1041L48.9064 75.1749V75.3164L49.0453 75.3414L49.0664 75.4372L48.9443 75.6703L48.8012 75.6453L48.6413 75.8119L48.5403 76.12V76.3531L48.5992 76.4239L48.7212 76.4489L48.7423 76.757L48.6413 76.9443L48.6202 77.2483L48.5403 77.3649L48.3803 78.0685L48.2583 78.3266H48.1572L48.1783 78.4432L48.3803 78.4682L48.1783 78.7263L48.1572 79.0552L47.9973 79.1718L47.9552 79.4549L48.0352 79.5257V79.6922L47.8921 79.8588L47.9342 79.9545L47.8542 80.0961V80.2835L47.7742 80.3293L47.7953 80.6582L47.9173 80.6124L47.9594 80.7289L47.7364 81.1037L47.7153 81.3618L47.7574 81.4326L47.6564 81.5033H47.5975L47.5764 81.4326L47.4964 81.4576V81.5283L47.5764 81.5533V81.6491L47.5343 81.8114L47.4544 81.8364V81.9322L47.5133 82.003H47.6522L47.6311 82.0488H47.3912L47.3702 81.8822L47.2902 81.8114L47.2481 81.9988L47.1892 82.0446L46.4021 82.0696V82.1862H47.2902L47.4501 82.6108L47.3281 83.2437L47.105 83.9015L47.0629 84.5843L46.7599 86.0415L46.7178 86.0665L46.7388 86.1373L46.5789 86.2081L46.4779 86.3954V86.512L46.3558 86.6786H46.5579V86.7243L46.4989 86.9117L46.3558 86.9825L46.2759 87.1698L46.318 87.2406L46.259 87.5904L46.2001 87.6153L46.0402 88.04L45.9602 88.0858L45.8592 88.2981L45.9981 88.3939L45.876 88.8644L45.9181 89.1475L45.876 89.4764L45.8171 89.618L45.594 89.8303V89.8761H45.7161L45.6151 90.3924V90.6755L45.2742 92.2243L45.1521 92.4575V92.7406L45.0721 92.9529L44.9332 93.7523L44.9122 93.8231L44.6512 93.9646L44.6723 94.0812L44.7733 94.152V94.2478L44.4703 95.5842L44.4913 95.7466L44.4113 95.8174L44.3314 96.2421L44.3735 96.6418L44.3145 96.6667L44.2346 96.6209L44.2556 96.9041L44.0746 97.3037L44.0325 97.5369L43.8095 97.9574L43.7674 98.4987L43.6243 98.7318V98.8026H43.6832L43.6664 99.1565L43.4433 99.7436L43.4643 99.8143L43.3633 100.143L43.2834 100.26L43.3044 100.543L43.1024 101.084L42.9803 101.272L42.8372 101.879V102.254L42.6773 102.417L42.7194 102.65L42.6184 102.883L42.5763 103.212L42.3532 103.541L42.3322 103.824L42.1512 104.153L42.1722 104.34L42.0712 104.436L41.8481 104.952L41.8271 105.069L41.886 105.139V105.256L41.764 105.581L41.6209 105.822L41.4188 106.876L41.1368 107.812L41.0947 107.883L40.9727 107.837L40.8927 107.908L40.8506 108.445L40.9937 108.541L41.0148 108.728L40.7917 108.845L40.8338 109.103L40.5939 109.711V110.061L40.3919 110.835L40.3329 110.881L40.354 110.977L40.2951 111.139L40.1141 111.372L39.9752 112.076L39.7521 112.754H39.6722L39.6301 112.638H39.5711L39.5501 112.779L39.6511 112.967L39.4701 113.316L39.3481 113.691L39.2681 113.666L39.1082 113.783V114.016L39.2092 114.299L39.1545 114.441L39.0703 114.486L39.0492 114.699L38.7462 115.402L38.7041 115.565L38.7462 115.59L38.6873 115.661L38.7672 115.777L38.6452 115.823L38.6873 115.869L38.6662 116.081L38.5652 116.223L38.4221 116.668L38.199 117.018L38.0181 117.159H37.8792L37.6561 117.372L37.7361 117.442V117.655L37.492 117.842L37.433 118.358L37.332 118.475L37.252 118.662V118.804L37.13 118.991L36.9911 119.458L37.0921 119.528L36.9322 119.741L36.8732 120.278L36.7133 120.653L36.5534 121.273L35.6653 124.304L35.1602 125.615L34.6383 126.877L34.0323 127.764L34.0112 127.905L33.9102 127.951L33.7503 128.23H33.7082V128.347H33.6493L33.6072 128.417V128.58L33.5482 128.605L33.5272 128.696L33.4472 128.721L33.4262 129L33.3041 129.233L33.2031 129.746L33.1231 129.837V129.929L32.9001 130.395L32.8201 130.745L32.1551 132.394L31.6879 133.384L31.0903 134.883L30.9303 134.975V135.021H30.8714L30.8503 134.929L30.7914 134.975L30.7704 135.583L30.7914 135.699L30.8924 135.745L30.8503 135.837L30.6904 135.999L30.6483 136.116H30.1853L30.1054 136.024H29.9244V136.116L30.0044 136.161V136.232L29.9833 136.42L29.9244 136.49L29.9454 136.724L29.8655 136.769V136.84L30.0675 136.957L30.0254 137.073H29.8655L29.6045 136.628V136.232L29.7266 135.953L29.8065 135.908V135.745H29.7476L29.5456 136.236L29.5246 136.565L29.6466 136.961L29.8697 137.194L29.5666 137.893L29.3057 138.36L29.1037 138.922L28.9016 139.297L28.9227 139.367L28.8638 139.392L28.7417 139.601L28.3797 140.462L28.0178 141.07L27.2938 142.611L26.4857 143.989L26.3258 144.455L26.0017 144.851L25.4377 145.971L25.2147 146.275L23.9857 148.444H23.9057L23.8636 148.352L23.7626 148.423L23.6405 148.727L23.4175 149.006L23.4385 149.122L23.2786 149.447L22.8745 149.959L22.6136 150.147L22.4705 150.638L21.3635 152.457L21.3046 152.482L21.2625 152.412L21.0605 152.366L21.2415 152.158V152.066L20.9974 152.345V152.416L21.0563 152.441L21.0353 152.649L21.1573 152.674L21.1784 152.72L21.0395 152.928L20.7364 153.115L18.9813 155.934"
      stroke="#403F36" />
  </g>
  <defs>
    <clipPath id="clip0_478_948">
      <rect width="124" height="330" fill="white" />
    </clipPath>
  </defs>
</svg>