<svg width="124" height="330" viewBox="0 0 124 330" fill="none" xmlns="http://www.w3.org/2000/svg">
<g clip-path="url(#clip0_64_1931)">
<path d="M94.3965 115.377L94.1902 115.785L94.346 119.416L95.1457 120.324L95.2635 120.898L94.5859 121.872L95.798 124.512L95.3393 127.518L94.0303 128.763L94.7374 132.31L96.0001 133.101L95.293 134.488L96.0464 135.683L95.4782 137.277L96.3704 142.186L94.6153 145.296L91.8206 142.781L91.4292 142.161L91.2693 141.024L90.2676 140.4L89.994 140.321L89.2785 140.292L88.2094 140.425L87.6749 140.575L86.6437 141.02L86.1387 141.087L85.6462 140.95L84.4299 140.233L84.1857 139.921L84.1394 139.717L84.2783 139.355L84.5519 139.018L84.5814 138.768L84.4004 138.372L84.1479 138.098L83.5923 137.935L83.3903 137.731L83.2935 137.323L83.2051 135.554L84.5519 135.82L85.5157 135.887L85.8693 135.566L86.0082 135.237L86.0755 134.821L86.0839 134.384L85.7851 133.18L85.9535 131.723L86.0839 131.394L86.6143 130.607L86.7321 130.274L86.7237 130.062L86.6984 129.858L86.0924 128.751L86.0082 128.459L85.9829 128.247L86.0924 127.185L86.0334 126.769L85.7599 126.215L85.6925 125.961L85.7514 125.757L86.3028 125.303L86.7995 124.283L86.9047 123.95L86.9131 123.571L86.8542 123.396L86.7237 123.271L85.7851 122.938L84.6193 121.889L84.5435 121.656L84.5603 121.502L84.7034 121.373L84.8886 121.335L85.6504 121.365L86.1429 121.169L86.227 120.994L86.2439 120.782L86.0924 120.499L85.8525 120.228L85.6883 120.124L85.7262 120.12L85.562 119.853L85.339 119.175L85.2716 118.85L85.3053 117.821L85.2716 117.326L85.1622 116.96L84.7203 116.035L84.6992 115.748L84.8213 115.269L85.1159 114.707L85.3895 114.491L85.9282 114.349L86.7532 114.295L87.7633 114.049L88.1842 113.833L88.3104 113.496L88.2641 113.146L87.7801 112.326L87.6412 111.847L87.9148 110.415L87.898 109.977L87.7422 109.32L87.7002 108.807L87.7885 108.237L88.0958 107.296L88.0663 106.734L87.9359 106.447L87.797 106.297L87.5444 106.209L87.1656 106.214L86.6101 106.389L86.4122 106.393L86.3196 106.347L86.2313 106.214L86.227 105.964L86.4375 105.602L87.0941 105.04L87.6076 104.361L88.6429 101.896L90.0824 102.637L90.5496 103.024L91.4292 104.398L91.968 106.051L92.2752 106.476L92.5109 106.622L92.7213 106.642L92.9528 106.534L93.8746 105.71L94.3081 105.423L94.4933 105.364L96.3284 105.323L97.6247 105.219L96.9976 106.447L96.5304 108.549L96.3241 110.798L96.0464 111.739L95.0236 113.108L94.7879 114.603L94.3965 115.377Z" stroke="#403F36"/>
<path d="M88.2763 87.2739L87.9648 87.4613L87.4093 88.4064L87.1357 88.5646L86.5338 88.7603L86.235 89.0934L85.5952 89.4597L85.1365 90.1842L84.9765 90.2924L84.7198 90.3341L84.5472 90.3008L83.9917 89.9802L83.7181 89.9427L83.3687 90.1176L82.9268 90.588L82.6364 90.7754L81.6726 90.9086L81.4284 91.0044L81.3274 91.1168L81.239 91.3541L81.1801 92.1369L80.8266 93.082L80.856 93.5441L80.9865 94.2228L80.9655 94.764L80.8055 95.147L80.3341 95.8798L80.0143 96.7125L78.8737 96.0505L78.3097 95.5842L77.5016 94.7515L77.3585 94.6724L77.1606 94.7099L76.8113 95.3094L76.5546 95.5634L76.2305 95.705L75.7843 95.7508L74.8752 95.7174L73.9114 95.4468L73.137 95.4843L72.4635 95.1137L72.0847 95.0388L71.2893 95.0555L70.3591 95.3053L69.8372 95.3594L69.4458 95.2428L69.269 95.1262L69.1343 94.9639L69.0586 94.7224L69.2059 93.6066L69.1385 93.1944L69.0459 93.0362L68.3515 92.7364L67.6065 92.3076L66.8952 92.0453L66.1965 91.2625L65.944 91.1626L65.279 91.0419L65.1359 90.892L65.1191 90.7837L65.3127 90.0509V89.3598L65.4726 88.8269L65.4053 87.8984L65.4431 87.2115L65.8682 86.2039V86.0207L65.7672 85.7876L65.6283 85.646L65.38 85.5502L64.9844 85.5169L64.3783 85.5544L63.8732 85.7251L63.1114 86.2372L62.699 86.3954L62.4506 86.3496L62.135 86.0124L62.0508 85.7751L62.0802 85.5794L62.1813 85.4087L62.3454 85.2879L63.1283 85.0215L63.4902 84.7508L63.7049 84.3303L63.7512 83.8807L63.6922 83.431L63.5954 83.2104L63.2798 82.8565L62.8631 82.6816L62.3959 82.6316L62.1855 82.6608L62.6148 81.8572L63.1661 81.445L66.0829 80.3542L67.8927 79.4424L69.3195 78.414L70.1908 77.5813L70.4433 77.0651L71.7733 75.5745L72.1605 75.383L72.8634 75.2789L73.8651 75.8202L75.1614 77.1483L76.2726 77.9561L77.4132 78.514L77.9898 78.6638L78.8358 78.668L82.3839 78.0227L83.777 78.0476L84.3915 78.1975L85.5658 79.0635L86.7443 81.037L86.9715 82.8523L86.8831 84.5427L87.304 85.7667L87.8175 86.4246L87.7965 86.8534L88.2763 87.2739Z" stroke="#403F36"/>
<path d="M68.541 100.693L67.3625 100.918L66.1588 101.292L65.4265 101.392L65.0477 101.734L64.6352 102.279L64.0207 102.895L63.9618 103.237L63.8145 103.578L62.8759 103.882L62.4382 104.465L62.1435 104.565L61.4701 104.532L59.917 103.507L59.4162 102.791L59.0963 102.521L58.5071 101.634L56.5752 99.1191L56.7267 99.0108L56.9666 98.3863L56.6257 95.9673L56.7057 93.6899L57.4759 92.2577L57.9599 91.654L59.8455 90.8171L60.3506 90.33L60.6494 88.1858L61.2807 86.4538L61.6216 84.2846L61.9415 83.1064L62.1856 82.6609L62.3961 82.6317L62.8633 82.6817L63.2799 82.8565L63.5956 83.2104L63.6924 83.4311L63.7513 83.8808L63.705 84.3304L63.4904 84.7509L63.1284 85.0216L62.3456 85.288L62.1814 85.4088L62.0804 85.5795L62.0509 85.7751L62.1351 86.0125L62.4508 86.3497L62.6991 86.3955L63.1116 86.2373L63.8734 85.7252L64.3784 85.5545L64.9845 85.517L65.3802 85.5503L65.6285 85.6461L65.7674 85.7876L65.8684 86.0208V86.204L65.4433 87.2115L65.4054 87.8985L65.4728 88.827L65.3128 89.3599V90.051L65.1192 90.7838L65.136 90.8921L65.2792 91.0419L65.9442 91.1627L66.1967 91.2626L66.8954 92.0453L67.6067 92.3076L68.3516 92.7365L69.0461 93.0362L69.1387 93.1945L69.206 93.6066L69.0587 94.7224L68.3011 94.456L67.7792 94.1354L67.009 93.8523L66.988 94.685L67.1142 95.3345L67.3078 95.5843L68.2169 96.1339L68.3769 96.2921L68.5831 96.7168L68.6378 97.3912L68.5747 97.8159L68.4274 98.0699L67.8213 98.3946L67.6782 98.6403L67.6361 99.04L67.7287 99.398L68.2212 99.8977L68.541 100.693Z" stroke="#403F36"/>
<path d="M96.6608 88.9185L96.5219 90.4382L97.0564 91.096L97.2332 91.5915L97.0269 92.8572L96.7954 93.4484L96.7449 94.127L97.3089 95.6384L96.9554 96.6168L96.9385 97.2205L97.4352 98.4404L97.1742 100.306L97.4562 101.517L97.5278 102.866L97.7256 103.536L97.8014 104.502L97.6246 105.219L96.3282 105.323L94.4932 105.364L94.308 105.423L93.8745 105.71L92.9527 106.534L92.7212 106.642L92.5108 106.622L92.2751 106.476L91.9679 106.051L91.4291 104.398L90.5495 103.024L90.0823 102.637L88.6428 101.896L88.4366 101.317L88.163 100.247L87.8558 99.4063L87.6369 98.9567L87.397 98.7027L86.9214 98.5653L86.2185 98.5487L85.3052 98.9692L84.3287 99.1482L83.4575 99.4688L82.9693 99.4521L82.7041 99.2564L82.3758 98.6486L82.1107 98.3155L81.8497 98.1406L80.9659 97.7076L80.3556 97.1372L80.0146 96.7126L80.3345 95.8799L80.8059 95.1471L80.9659 94.7641L80.9869 94.2228L80.8564 93.5442L80.827 93.082L81.1805 92.1369L81.2394 91.3542L81.3278 91.1169L81.4288 91.0044L81.6729 90.9087L82.6368 90.7754L82.9272 90.5881L83.3691 90.1176L83.7185 89.9427L83.992 89.9802L84.5476 90.3008L84.7202 90.3341L84.9769 90.2925L85.1368 90.1842L85.5956 89.4598L86.2354 89.0934L86.5342 88.7603L87.1361 88.5646L87.4096 88.4064L87.9652 87.4613L88.2767 87.274L89.1942 87.4197L90.2801 87.1074L91.93 87.1782L92.8391 87.453L94.9772 88.4397L96.6608 88.9185Z" stroke="#403F36"/>
<path d="M70.3301 117.051L71.5339 115.573L72.2073 114.953L73.8614 114.074L74.9431 113.916L75.2335 113.8L75.406 113.662L75.6123 113.35L75.7217 113L75.7385 112.334L75.688 112.126L75.4229 111.693L74.922 111.31L74.5306 111.16L73.7604 111.027L73.0785 110.739L72.6997 110.681L72.3125 110.71L72.1315 110.769L71.576 111.097L71.2771 111.172L70.7047 111.127L70.1155 110.889L69.8377 110.656L69.5683 110.298L69.341 109.823L68.8991 108.595L68.7434 108.358L68.4614 108.129L68.6087 107.588L69.1643 106.642L69.5136 105.677L69.8124 104.003L69.8545 103.457L69.7914 102.633L69.32 101.422L69.017 101.051L68.5414 100.693L68.2215 99.8977L67.729 99.3981L67.6364 99.04L67.6785 98.6403L67.8216 98.3947L68.4277 98.0699L68.575 97.8159L68.6382 97.3913L68.5834 96.7168L68.3772 96.2921L68.2173 96.1339L67.3082 95.5843L67.1145 95.3345L66.9883 94.685L67.0093 93.8523L67.7795 94.1354L68.3014 94.456L69.059 94.7225L69.1348 94.9639L69.2695 95.1263L69.4463 95.2429L69.8377 95.3595L70.3596 95.3054L71.2898 95.0555L72.0852 95.0389L72.464 95.1138L73.1375 95.4844L73.9119 95.4469L74.8757 95.7175L75.7848 95.7508L76.231 95.705L76.5551 95.5635L76.8118 95.3095L77.1611 94.71L77.359 94.6725L77.5021 94.7516L78.3102 95.5843L78.8741 96.0506L80.0148 96.7126L80.3557 97.1373L80.966 97.7077L81.8498 98.1407L82.1108 98.3155L82.3759 98.6486L82.7042 99.2565L82.9694 99.4522L83.4576 99.4688L84.3289 99.1482L85.3053 98.9692L86.2186 98.5487L86.9215 98.5654L87.3971 98.7028L87.637 98.9567L87.8559 99.4064L88.1631 100.247L88.4367 101.317L88.6429 101.896L87.6076 104.361L87.0941 105.04L86.4375 105.602L86.2271 105.964L86.2313 106.214L86.3196 106.347L86.4122 106.393L86.6101 106.389L87.1656 106.214L87.5444 106.21L87.797 106.297L87.9359 106.447L88.0663 106.734L88.0958 107.296L87.7885 108.237L87.7002 108.808L87.7423 109.32L87.898 109.977L87.9148 110.415L87.6412 111.847L87.7801 112.326L88.2641 113.146L88.3104 113.496L88.1842 113.833L87.7633 114.049L86.7532 114.295L85.9282 114.349L85.3895 114.491L85.1159 114.707L84.8213 115.269L84.6992 115.748L84.7203 116.035L85.1622 116.96L85.2716 117.326L85.3053 117.821L85.2716 118.85L85.339 119.175L85.562 119.853L85.7262 120.12L85.6883 120.124L85.2548 120.128L84.4299 119.936L84.0511 119.995L83.2766 120.719L83.0956 120.794L82.8978 120.765L82.4475 120.403L82.0434 119.841L81.9466 119.603L81.7993 118.733L81.6646 118.446L81.5636 118.342L81.0333 118.05L78.8615 117.297L78.4196 117.276L77.7798 117.455L77.4684 117.434L77.1696 117.272L76.7024 116.901L76.4709 116.831L75.7554 116.893L75.0441 116.868L74.1392 116.922L73.8824 116.806L73.3816 116.331L73.1459 116.264L71.6265 116.951L71.1466 117.035L70.3301 117.051Z" stroke="#403F36"/>
<path d="M68.4613 108.129L67.1649 108.283L66.7356 108.27L66.1969 108.183L65.4014 107.991L64.2482 107.471L63.4611 107.259L62.6993 106.942L62.5352 106.905L62.3163 106.934L62.1101 107.088L62.0343 107.213L61.807 108.229L61.706 108.462L60.7969 110.023L60.5907 110.602L60.3971 110.856L59.3533 111.659L58.945 111.897L58.6335 112.009L57.535 112.196L56.104 112.8L55.7378 113.117L55.2706 113.67L54.8708 113.862L54.9129 113.525L55.5021 112.421L55.7336 111.539L55.6452 110.456L55.0939 108.05L54.7024 107.238L53.7134 105.772L53.6797 104.794L53.806 103.807L55.1149 100.872L56.1124 99.4438L56.5754 99.119L58.5073 101.634L59.0965 102.521L59.4164 102.791L59.9172 103.507L61.4703 104.532L62.1437 104.565L62.4384 104.465L62.8761 103.882L63.8147 103.578L63.962 103.237L64.0209 102.895L64.6354 102.279L65.0479 101.734L65.4267 101.392L66.159 101.292L67.3627 100.918L68.5412 100.693L69.0168 101.051L69.3199 101.421L69.7913 102.633L69.8544 103.457L69.8123 104.003L69.5135 105.676L69.1641 106.642L68.6086 107.588L68.4613 108.129Z" stroke="#403F36"/>
<path d="M70.3304 117.051L69.7706 116.768L69.0425 116.264L68.6468 116.081L68.1334 116.019L67.3295 116.202L67.1274 116.194L66.374 115.785L65.6922 115.54L65.1956 115.569L64.8715 115.715L64.6316 115.902L64.2444 116.439L64.1055 116.514L63.1711 116.656L62.5608 116.901L62.0852 117.189L61.5591 117.28L61.1971 117.268L60.4985 117.151L59.341 116.839L58.2678 116.747L57.7206 116.493L57.325 115.944L57.1145 115.798L56.7694 115.74L55.915 115.744L55.814 115.556L55.0564 114.757L54.8291 114.195L54.8712 113.862L55.271 113.67L55.7382 113.117L56.1044 112.8L57.5354 112.197L58.6339 112.009L58.9454 111.897L59.3536 111.659L60.3974 110.856L60.591 110.602L60.7973 110.023L61.7064 108.462L61.8074 108.229L62.0347 107.213L62.1105 107.088L62.3167 106.934L62.5356 106.905L62.6997 106.942L63.4615 107.259L64.2486 107.471L65.4018 107.991L66.1973 108.183L66.736 108.27L67.1653 108.283L68.4617 108.129L68.7436 108.358L68.8994 108.595L69.3413 109.823L69.5686 110.298L69.838 110.656L70.1157 110.889L70.705 111.127L71.2774 111.172L71.5762 111.097L72.1318 110.768L72.3128 110.71L72.7 110.681L73.0788 110.739L73.7606 111.027L74.5309 111.16L74.9223 111.31L75.4231 111.693L75.6883 112.126L75.7388 112.334L75.722 113L75.6125 113.35L75.4063 113.662L75.2337 113.8L74.9433 113.916L73.8616 114.074L72.2076 114.953L71.5341 115.573L70.3304 117.051Z" stroke="#403F36"/>
<path d="M83.2049 135.554L82.8808 135.458L82.6788 135.47L81.8665 135.687L81.6813 135.679L81.4498 135.579L81.0626 134.767L80.6459 134.346L80.3513 133.626L80.2419 133.476L80.0104 133.368L79.337 133.289L78.7646 133.11L78.1879 132.348L77.9522 132.11L77.7671 131.998L77.001 131.848L76.3403 131.636L75.9699 131.632L75.6332 131.777L75.2459 132.26L75.1197 132.306L74.8882 132.21L74.4968 131.765L74.1222 131.602L72.8132 131.515L72.1945 131.69L71.2686 131.382L70.7761 131.498L70.2963 131.848L70.0522 132.306L70.0732 132.889L70.0311 133.139L69.9049 133.26L69.6566 133.322L68.3476 133.289L67.6531 132.951L65.7802 132.993L64.9763 132.96L64.6564 132.872L63.7136 132.464L63.4064 132.456L63.2128 132.564L63.0107 132.893L62.8887 133.788L62.7414 134.18L61.9459 134.875L61.6471 135.196L60.658 135.774L59.2943 137.24L57.4466 137.894L55.4432 137.61L54.0416 137.015L53.4355 134.763L54.3278 133.455L57.9517 132.814L58.5914 130.849L58.2421 129.5L56.5838 128.193L55.4726 126.71L55.2959 124.804L56.2892 122.705L55.9735 121.872L56.2934 121.614L56.1545 121.16L56.1376 120.594L56.7185 119.341L56.8868 118.096L56.6469 117.126L55.9146 115.744L56.769 115.74L57.1141 115.798L57.3245 115.944L57.7202 116.493L58.2673 116.747L59.3406 116.839L60.498 117.151L61.1967 117.268L61.5587 117.28L62.0848 117.189L62.5604 116.901L63.1707 116.656L64.105 116.514L64.2439 116.439L64.6312 115.902L64.8711 115.715L65.1951 115.569L65.6918 115.54L66.3736 115.785L67.127 116.193L67.329 116.202L68.1329 116.019L68.6464 116.081L69.0421 116.264L69.7702 116.768L70.33 117.051L71.1465 117.034L71.6263 116.951L73.1457 116.264L73.3814 116.331L73.8823 116.805L74.139 116.922L75.0439 116.868L75.7552 116.893L76.4707 116.83L76.7022 116.901L77.1694 117.272L77.4682 117.434L77.7797 117.455L78.4194 117.276L78.8614 117.297L81.0331 118.05L81.5635 118.342L81.6645 118.446L81.7992 118.733L81.9465 119.603L82.0433 119.841L82.4473 120.403L82.8977 120.765L83.0955 120.794L83.2765 120.719L84.0509 119.995L84.4297 119.936L85.2547 120.128L85.6882 120.124L85.8523 120.228L86.0922 120.498L86.2437 120.782L86.2269 120.994L86.1427 121.169L85.6503 121.364L84.8885 121.335L84.7033 121.373L84.5602 121.502L84.5433 121.656L84.6191 121.889L85.785 122.938L86.7236 123.271L86.854 123.396L86.9129 123.571L86.9045 123.95L86.7993 124.283L86.3027 125.303L85.7513 125.757L85.6924 125.961L85.7597 126.215L86.0333 126.769L86.0922 127.185L85.9828 128.247L86.008 128.459L86.0922 128.751L86.6983 129.858L86.7236 130.062L86.732 130.274L86.6141 130.607L86.0838 131.394L85.9533 131.723L85.785 133.18L86.0838 134.384L86.0754 134.821L86.008 135.237L85.8691 135.566L85.5156 135.887L84.5518 135.82L83.2049 135.554Z" stroke="#403F36"/>
<path d="M94.6156 145.296L94.5314 145.446L93.8622 147.536L90.9623 144.63L90.6382 144.393L90.3183 144.239L89.4008 143.96L89.0893 143.931L88.3612 144.13L87.7804 144.143L87.1238 143.993L85.8485 143.885L84.8931 143.602L84.7205 143.593L84.4259 143.664L83.1843 144.193L82.8265 144.276L82.1278 144.259L81.5512 144.064L81.0546 143.997L80.2507 144.234L79.4636 144.767L79.1985 144.859L77.9947 145.063L77.3676 144.971L76.9972 144.98L75.5283 145.546L74.8212 145.6L74.3583 145.521L74.1436 145.421L71.9424 143.926L72.7 142.756L72.9146 139.717L71.593 138.351L68.2301 138.368L65.0945 137.119L63.6383 136.428L62.0389 134.967L61.6475 135.196L61.9463 134.875L62.7418 134.18L62.8891 133.788L63.0111 132.893L63.2132 132.564L63.4068 132.456L63.714 132.464L64.6568 132.872L64.9767 132.96L65.7806 132.993L67.6535 132.951L68.348 133.289L69.657 133.322L69.9053 133.26L70.0315 133.139L70.0736 132.889L70.0526 132.306L70.2967 131.848L70.7765 131.498L71.269 131.382L72.1949 131.69L72.8136 131.515L74.1226 131.602L74.4972 131.765L74.8886 132.21L75.1201 132.306L75.2463 132.26L75.6336 131.777L75.9703 131.632L76.3406 131.636L77.0014 131.848L77.7675 131.998L77.9526 132.11L78.1883 132.348L78.765 133.11L79.3374 133.289L80.0108 133.368L80.2423 133.476L80.3517 133.626L80.6463 134.346L81.063 134.767L81.4502 135.579L81.6817 135.679L81.8669 135.687L82.6792 135.47L82.8812 135.458L83.2053 135.554L83.2937 137.323L83.3905 137.731L83.5925 137.935L84.1481 138.098L84.4006 138.372L84.5816 138.768L84.5522 139.018L84.2786 139.355L84.1397 139.717L84.186 139.921L84.4301 140.233L85.6465 140.949L86.1389 141.087L86.644 141.02L87.6751 140.575L88.2097 140.425L89.2787 140.292L89.9942 140.321L90.2678 140.4L91.2695 141.024L91.4295 142.161L91.8209 142.781L94.6156 145.296Z" stroke="#403F36"/>
<path d="M82.755 166.809L82.3594 166.942L81.7281 166.934L81.3998 166.83L80.0277 166.184L79.6868 165.972L79.0176 164.79L78.8787 164.394L78.9039 163.982L79.1901 163.207L79.1354 162.812L78.9839 162.583L77.8685 161.684L76.871 161.259L76.1892 161.059L75.9367 160.905L75.3095 160.11L74.5814 159.344L73.7817 158.728L73.6218 158.444L73.6092 157.412L73.0115 156.075L72.2076 153.698L72.0014 153.307L71.3279 152.524L71.1806 152.466L71.0796 152.486L70.9323 152.703L70.806 154.268L70.6756 154.539L70.4693 154.697L70.1495 154.826L69.7791 154.843L69.0131 154.71L68.1418 154.635L67.8051 154.539L67.4726 154.381L67.2538 154.198L67.0644 153.923L66.9549 153.623L67.0307 153.407L67.6494 153.111L67.923 152.77L68.0071 152.516L67.9945 152.278L67.7209 151.866L66.917 151.362L66.3951 151.15L66.2352 151.158L65.7217 151.387L65.3093 151.466L64.8926 151.425L64.6611 151.321L64.5643 151.237L64.4296 150.975L64.2865 149.955L64.1097 149.643L63.6383 149.297L61.959 148.498L65.0946 145.429L68.1839 144.176L71.8414 144.085L71.9424 143.926L74.1437 145.421L74.3583 145.521L74.8213 145.6L75.5284 145.546L76.9973 144.98L77.3677 144.971L77.9948 145.063L79.1985 144.859L79.4637 144.767L80.2508 144.234L81.0547 143.997L81.5513 144.064L82.1279 144.259L82.8266 144.276L83.1844 144.193L84.426 143.664L84.7206 143.593L84.8932 143.602L85.8486 143.885L87.1239 143.993L87.7804 144.143L88.3613 144.13L89.0894 143.931L89.4009 143.96L90.3184 144.239L90.6383 144.393L90.9624 144.63L93.8623 147.536L92.2882 152.436L90.7561 157.637L90.6088 161.38L90.5583 164.852L85.7644 164.781L84.6196 165.181L82.755 166.809Z" stroke="#403F36"/>
<path d="M53.8228 155.251L54.4836 154.16L56.6974 151.795L57.9012 150.754L61.302 149.139L61.9585 148.498L63.6379 149.297L64.1093 149.643L64.2861 149.955L64.4292 150.975L64.5638 151.237L64.6606 151.321L64.8921 151.425L65.3088 151.466L65.7213 151.387L66.2348 151.158L66.3947 151.15L66.9166 151.362L67.7205 151.866L67.9941 152.278L68.0067 152.516L67.9225 152.77L67.6489 153.111L67.0302 153.407L66.9545 153.623L67.0639 153.923L67.2533 154.198L67.4722 154.381L67.8047 154.539L68.1414 154.635L69.0126 154.71L69.7786 154.843L70.149 154.826L70.4689 154.697L70.6751 154.539L70.8056 154.268L70.9319 152.703L71.0792 152.486L71.1802 152.466L71.3275 152.524L72.0009 153.307L72.2072 153.698L73.0111 156.075L73.6087 157.412L73.6213 158.444L73.7813 158.727L74.581 159.344L75.3091 160.11L75.9362 160.905L76.1888 161.059L76.8706 161.259L77.8681 161.684L78.9835 162.583L79.135 162.812L79.1897 163.207L78.9035 163.982L78.8782 164.394L79.0171 164.789L79.6863 165.972L80.0273 166.184L81.3993 166.83L81.7276 166.934L82.359 166.942L82.7546 166.809L82.0559 167.421L79.6442 169.161L77.2957 170.194L75.4901 172.205L73.373 174.349L72.3082 174.982L70.5657 175.306L69.2062 175.423L67.6363 175.689L66.6304 175.46L65.0984 176.247L60.9147 175.981L57.9475 175.735L54.9087 176.485L51.6131 176.914L49.8117 176.435L48.6459 175.481L47.8336 174.178L47.6357 172.513L49.0457 169.711L50.6535 167.658L52.1056 164.931L52.3749 163.474L52.0593 160.06L52.699 156.908L53.8228 155.251Z" stroke="#403F36"/>
<path d="M16.3848 159.798L18.203 157.199L18.9859 155.95L22.1383 158.852L23.1274 160.297L23.1358 161.908L22.4918 163.037L20.3916 163.532L19.6172 163.087L18.9816 162.649L18.6702 162.55L18.224 162.491L18.0304 162.371L17.8368 162.05L17.7737 161.613L17.6769 161.346L17.4538 161.034L16.6205 160.139L16.3848 159.798Z" stroke="#403F36"/>
<path d="M13.6787 169.961L13.6282 168.928L13.3378 167.841L13.0979 167.475L12.8579 167.358L11.7847 167.05L10.501 166.996L10.9219 166.413L11.4859 165.76L13.081 164.015L16.385 159.798L16.6207 160.139L17.454 161.034L17.6771 161.346L17.7739 161.613L17.837 162.05L18.0307 162.371L18.2243 162.491L18.6704 162.55L18.9819 162.65L19.6174 163.087L20.3918 163.532L13.6787 169.961Z" stroke="#403F36"/>
<path d="M10.396 174.528L9.73944 174.424L9.54583 174.307L8.92712 173.695L8.7714 173.595L6.41442 172.75L5.97249 172.496L5.70312 172.201L6.36813 171.597L7.71918 170.202L8.78823 169.04L10.5012 166.996L11.785 167.05L12.8582 167.358L13.0981 167.475L13.338 167.841L13.6284 168.928L13.6789 169.961L13.0981 170.514L10.6822 173.587L10.396 174.528Z" stroke="#403F36"/>
<path d="M6.76292 184.091L6.3294 183.105L5.93377 181.327L5.82855 181.052L5.69807 180.894L5.44554 180.723L4.01031 180.028L2.90759 179.391L0.777897 177.834L0.28125 177.609L2.4404 175.523L4.91943 172.9L5.70228 172.201L5.97165 172.496L6.41358 172.75L8.77055 173.595L8.92628 173.695L9.54499 174.307L9.73859 174.424L10.3952 174.528L10.0458 175.685L10.2268 178.096L10.2437 180.348L9.44397 181.802L6.76292 184.091Z" stroke="#403F36"/>
<path d="M2.95043 186.981L0.12207 177.73L0.282008 177.609L0.778655 177.834L2.90835 179.391L4.01107 180.028L5.4463 180.723L5.69883 180.894L5.82931 181.052L5.93453 181.327L6.33016 183.105L6.76368 184.091L6.21652 184.558L2.95043 186.981Z" stroke="#403F36"/>
<path d="M122.562 28.3899L122.428 28.7479L122.592 29.2101L123.412 30.1302L123.492 30.5008L123.391 30.7089L123.004 30.9338L122.188 31.0295L120.74 30.6506L120.433 30.8963L120.26 31.3418L120.626 32.8323L120.416 35.5136L120.794 36.7293L121.417 42.3958L122.68 44.1278L122.928 44.7232L122.937 45.1895L122.604 46.0971L122.327 46.5718L121.013 48.8409L119.953 51.1558L118.774 52.4048L116.994 55.5649L114.729 58.1671L114.662 57.8839L114.203 57.6258L112.621 58.2712L111.867 58.3586L111.505 58.6625L111.228 59.2995L110.929 60.4528L109.275 60.6735L108.231 61.7185L107.078 62.5262L106.354 62.7427L105.836 63.0758L104.039 63.2007L103.172 63.7544L101.126 64.6371L100.655 65.17L100.79 66.3649L99.969 66.6855L100.003 67.206L99.8259 67.41L99.1861 67.5848L98.1381 68.3717L98.0413 69.2419L98.2686 69.5042L98.1634 70.7657L98.3317 71.1571L98.8705 71.4486L99.0136 71.9773L98.6684 72.7684L98.6179 73.5678L99.3629 75.0958L99.2914 75.2748L98.5632 75.2623L98.437 76.0617L98.1044 76.0534L97.6836 75.7786L97.5278 75.8618L97.5741 76.3656L98.0624 77.1484L97.9024 77.419L97.1701 77.573L96.7829 78.1143L97.1238 78.3683L97.591 78.3558L98.0539 79.4008L98.5969 79.6173L98.7358 79.8463L98.6474 80.2793L97.7509 81.8739L97.6878 82.3027L97.8014 82.6858L98.3991 82.9731L98.5464 83.2603L98.3654 83.6725L98.0119 83.685L97.7635 83.9057L97.9445 85.0257L97.0901 85.288L97.3006 87.199L97.1743 87.5154L96.6313 87.6736L96.5598 87.811L97.25 88.9685L96.6608 88.9143L94.9773 88.4355L92.8391 87.4488L91.9258 87.174L90.2759 87.1032L89.1901 87.4155L88.2725 87.2698L87.7927 86.8493L87.8138 86.4204L87.2961 85.7626L86.8752 84.5385L86.9636 82.8482L86.7363 81.0329L85.5578 79.0594L84.3835 78.1934L83.769 78.0435L82.3717 78.0227L78.8236 78.668L77.9776 78.6639L77.401 78.514L76.2604 77.9561L75.145 77.1484L73.8529 75.8202L72.847 75.279L72.1441 75.3872L71.7611 75.5787L71.357 76.0325L70.4269 77.0734L70.1744 77.5897L69.3073 78.4224L67.8763 79.4508L66.0707 80.3626L63.154 81.4534L62.6026 81.8656L61.9292 83.1146L61.6093 84.2929L61.2726 86.4621L60.6413 88.1941L60.4939 89.2474L60.3424 90.3382L59.8331 90.8254L57.9476 91.6622L57.4635 92.2659L56.6933 93.6982L56.6134 95.9756L56.9543 98.3946L56.7144 99.0233L56.0999 99.4563L55.1024 100.884L53.7892 103.82L53.6671 104.806L53.7008 105.785L54.6899 107.25L55.0813 108.062L55.6327 110.469L55.7211 111.551L55.4896 112.434L54.9003 113.537L54.8204 114.212L55.0477 114.77L55.8052 115.569L56.6386 117.139L56.8785 118.109L56.7102 119.349L56.1251 120.603L56.142 121.169L56.2809 121.623L55.961 121.881L56.2809 122.713L55.2876 124.816L55.4643 126.723L56.5755 128.205L58.2338 129.512L58.5831 130.861L57.9392 132.827L54.3195 133.468L54.2522 133.563L53.423 134.775L54.0291 137.027L55.4307 137.623L57.4341 137.91L59.2818 137.252L60.6455 135.787L62.026 134.979L63.6211 136.44L65.0816 137.132L68.213 138.381L71.5801 138.364L72.9017 139.73L72.6828 142.769L71.9252 143.939L71.8242 144.093L68.1667 144.189L65.0732 145.438L61.281 149.147L57.8802 150.763L56.6765 151.804L54.4626 154.169L53.8018 155.259L52.6781 156.916L52.0383 160.064L52.354 163.478L52.0846 164.935L50.6325 167.662L49.0248 169.715L47.6148 172.517L47.8126 174.182L48.6291 175.486L49.7908 176.439L51.5922 176.914L54.8835 176.485L57.9265 175.735L60.8896 175.981L65.0732 176.247L66.6052 175.461L67.6111 175.69L69.1811 175.423L70.5363 175.311L72.283 174.986L73.3478 174.353L75.4649 172.209L77.2705 170.198L79.6191 169.165L82.0265 167.425L84.594 165.185L85.7388 164.785L90.5327 164.852L90.5243 166.305L90.4948 170.585L90.2381 172.271L89.0469 175.64L86.3028 180.519L85.4652 182.201L84.6866 183.559L84.3162 185.241L85.1453 187.023L88.382 191.332L88.9586 192.556L89.3205 194.296L89.3921 195.595L88.9038 197.735L88.4535 199.263L85.6798 203.497L85.3852 205.196L85.5536 206.553L86.147 208.177L86.1428 209.897L84.8844 211.037L82.157 212.807L80.2167 217.037L80.1957 218.544L80.5576 219.918L80.1873 221.596L78.7983 222.091L77.7167 223.386L77.0769 225.118L77.0727 228.507L76.0457 230.868L74.2654 234.082L73.8782 235.927L72.8007 236.913L70.6626 241.002L70.49 242.372L68.8486 249.895L68.3477 251.377L67.346 252.801L67.0556 253.921L69.5683 258.589L69.9513 259.879L69.7198 260.866L68.1078 262.631L67.6448 264.055L67.8931 265.704L66.5084 268.739L68.7812 278.686L63.1666 286.655L61.6556 292.592L61.8829 299.037L59.7448 303.267L59.4207 304.816L59.6311 306.044L59.4207 307.705L58.1833 312.801V315.574L58.3727 317.31L58.3937 318.913L57.4425 320.062L56.1462 321.007L55.0434 322.273L54.2648 323.818L53.5619 325.783L53.4188 325.737L53.1158 325.758L52.9348 325.575H52.7749L52.7159 325.804L52.636 325.829L52.5939 326.058L52.4929 326.17L52.4718 326.283H52.2908L52.2488 326.395L52.0678 326.462L51.9878 326.62L51.9289 326.961L51.7479 327.257H51.588V327.323L51.3649 327.573L51.1039 327.731L51.045 327.96L50.763 328.235V328.577L50.582 328.689L50.3211 329.055L50.178 329.168V329.372L49.8539 329.738L49.5761 329.871L47.7453 327.773L46.7898 325.987L46.4447 324.613L46.1543 322.223L46.8361 319.979L47.1771 317.735L46.8488 316.19L45.5482 313.95L45.5987 309.991L38.1785 289.386L38.33 288.137L35.9772 281.712L29.7313 264.23L28.254 258.734L23.1907 255.458L23.0055 252.914L24.5038 248.729L21.3556 245.078L21.5661 240.552L19.4658 231.909L13.0767 218.632L8.93522 206.633L2.9502 186.981L6.21628 184.558L9.44449 181.797L10.2442 180.344L10.2273 178.092L10.0464 175.681L10.6819 173.583L13.102 170.506L20.3791 163.528L22.492 163.033L23.136 161.9L23.1275 160.289L22.1385 158.844L18.9818 155.934L20.7369 153.115L21.0399 152.928L21.1788 152.72L21.1578 152.674L21.0357 152.649L21.0568 152.441L20.9979 152.416V152.345L21.242 152.066V152.158L21.061 152.366L21.263 152.412L21.3051 152.482L21.364 152.457L22.471 150.638L22.6141 150.147L22.875 149.959L23.2791 149.447L23.439 149.122L23.418 149.006L23.641 148.727L23.7631 148.423L23.8641 148.352L23.9062 148.444H23.9862L25.2151 146.275L25.4382 145.971L26.0022 144.851L26.3263 144.455L26.4862 143.989L27.2943 142.611L28.0183 141.07L28.3802 140.462L28.7422 139.601L28.8642 139.392L28.9232 139.367L28.9021 139.297L29.1041 138.922L29.3062 138.36L29.5671 137.893L29.8702 137.194L29.6471 136.961L29.525 136.565L29.5461 136.236L29.7481 135.745H29.807V135.908L29.7271 135.953L29.605 136.232V136.628L29.866 137.073H30.0259L30.068 136.957L29.866 136.84V136.769L29.9459 136.724L29.9249 136.49L29.9838 136.42L30.0048 136.232V136.161L29.9249 136.116V136.024H30.1059L30.1858 136.116H30.6488L30.6909 135.999L30.8508 135.837L30.8929 135.745L30.7919 135.699L30.7709 135.583L30.7919 134.975L30.8508 134.929L30.8719 135.021H30.9308V134.975L31.0907 134.883L31.6884 133.384L32.1556 132.394L32.8206 130.745L32.9006 130.395L33.1236 129.929V129.837L33.2036 129.746L33.3046 129.233L33.4267 129L33.4477 128.721L33.5277 128.696L33.5487 128.605L33.6076 128.58V128.417L33.6497 128.347H33.7087V128.23H33.7507L33.9107 127.951L34.0117 127.905L34.0327 127.764L34.6388 126.877L35.1607 125.615L35.6658 124.304L36.5539 121.273L36.7138 120.653L36.8737 120.278L36.9327 119.741L37.0926 119.528L36.9916 119.458L37.1305 118.991L37.2525 118.804V118.662L37.3325 118.475L37.4335 118.358L37.4924 117.842L37.7365 117.655V117.442L37.6566 117.372L37.8797 117.159H38.0185L38.1995 117.018L38.4226 116.668L38.5657 116.223L38.6667 116.081L38.6878 115.869L38.6457 115.823L38.7677 115.777L38.6878 115.661L38.7467 115.59L38.7046 115.565L38.7467 115.402L39.0497 114.699L39.0708 114.486L39.1549 114.441L39.2097 114.299L39.1086 114.016V113.783L39.2686 113.666L39.3485 113.691L39.4706 113.316L39.6516 112.967L39.5506 112.779L39.5716 112.638H39.6305L39.6726 112.754H39.7526L39.9757 112.076L40.1146 111.372L40.2955 111.139L40.3545 110.977L40.3334 110.881L40.3923 110.835L40.5944 110.061V109.711L40.8343 109.103L40.7922 108.845L41.0153 108.728L40.9942 108.541L40.8511 108.445L40.8932 107.908L40.9732 107.837L41.0952 107.883L41.1373 107.812L41.4193 106.876L41.6213 105.822L41.7644 105.581L41.8865 105.256V105.139L41.8276 105.069L41.8486 104.952L42.0717 104.436L42.1727 104.34L42.1517 104.153L42.3326 103.824L42.3537 103.541L42.5768 103.212L42.6188 102.883L42.7199 102.65L42.6778 102.417L42.8377 102.254V101.879L42.9808 101.272L43.1029 101.084L43.3049 100.543L43.2838 100.26L43.3638 100.143L43.4648 99.8143L43.4438 99.7435L43.6669 99.1565L43.6837 98.8026H43.6248V98.7318L43.7679 98.4987L43.81 97.9574L44.033 97.5369L44.0751 97.3038L44.2561 96.9041L44.2351 96.6209L44.315 96.6667L44.3739 96.6418L44.3319 96.2421L44.4118 95.8174L44.4918 95.7466L44.4707 95.5842L44.7738 94.2478V94.152L44.6728 94.0812L44.6517 93.9646L44.9127 93.8231L44.9337 93.7523L45.0726 92.9529L45.1526 92.7406V92.4575L45.2746 92.2243L45.6156 90.6755V90.3924L45.7166 89.8761H45.5945V89.8303L45.8176 89.618L45.8765 89.4764L45.9186 89.1475L45.8765 88.8644L45.9986 88.3939L45.8597 88.2981L45.9607 88.0858L46.0407 88.04L46.2006 87.6153L46.2595 87.5904L46.3184 87.2406L46.2764 87.1698L46.3563 86.9825L46.4994 86.9117L46.5583 86.7244V86.6786H46.3563L46.4784 86.512V86.3954L46.5794 86.2081L46.7393 86.1373L46.7183 86.0665L46.7604 86.0415L47.0634 84.5843L47.1055 83.9015L47.3286 83.2437L47.4506 82.6108L47.2907 82.1862H46.4026V82.0696L47.1897 82.0446L47.2486 81.9988L47.2907 81.8114L47.3707 81.8822L47.3917 82.0488H47.6316L47.6527 82.003H47.5138L47.4548 81.9322V81.8364L47.5348 81.8114L47.5769 81.6491V81.5533L47.4969 81.5283V81.4576L47.5769 81.4326L47.5979 81.5033H47.6569L47.7579 81.4326L47.7158 81.3618L47.7368 81.1037L47.9599 80.7289L47.9178 80.6124L47.7958 80.6582L47.7747 80.3293L47.8547 80.2835V80.0961L47.9347 79.9545L47.8926 79.8588L48.0357 79.6922V79.5257L47.9557 79.4549L47.9978 79.1718L48.1577 79.0552L48.1788 78.7263L48.3808 78.4682L48.1788 78.4432L48.1577 78.3266H48.2587L48.3808 78.0685L48.5407 77.3649L48.6207 77.2483L48.6417 76.9443L48.7428 76.757L48.7217 76.4489L48.5997 76.4239L48.5407 76.3531V76.12L48.6417 75.8119L48.8017 75.6453L48.9448 75.6703L49.0668 75.4372L49.0458 75.3414L48.9069 75.3164V75.1749L48.8059 75.1041L49.0458 74.6586L48.9869 74.542L49.0079 74.3547L49.13 74.2131L49.2899 73.6261L49.3699 73.6718L49.412 73.5761L49.3699 73.4096L49.5298 73.1015L49.4877 72.9141L49.3446 72.7725V72.631L49.4877 72.4894L49.5467 72.1605L49.4667 72.1147V71.9981L49.5887 71.6442L49.7108 71.4777L49.6519 71.3819L49.7108 71.2154L49.6898 70.8157L49.7697 70.6492V70.4368L49.7108 70.391L49.7908 70.1537L49.8707 69.4001L49.9717 69.3751L50.0728 69.1378L50.1149 68.455L50.2369 67.9346L50.3758 67.6973L50.2537 67.6265L50.3548 67.106L50.3337 66.7272L50.5147 66.5606L50.5357 66.4649L50.5568 65.7113L50.6788 64.9327L50.6578 64.2249L50.7378 64.0584V63.9876L50.6578 63.9168V63.8002L50.6999 63.7544L50.6788 63.5879L50.8009 63.4921L50.7799 63.3506L50.6788 63.2798V63.0925L50.8009 62.7386V62.5512L51.024 62.2931V62.1765L51.1839 62.01L51.4659 62.0349L51.6679 61.7768L51.811 61.4687L51.891 61.1148L51.8321 60.9025L51.971 60.7359L52.0509 59.8616L52.2109 59.4827L52.354 57.8298L52.4339 57.5217V56.7889L52.476 56.46L52.556 56.2727L52.657 55.0694L52.577 54.6906H52.6781L52.6991 54.6448L52.758 54.0785L52.737 53.7954L52.636 53.6081H52.6949L52.737 53.5373L52.7959 53.6081L52.8548 53.5831V53.5123L52.7959 53.4873L52.8548 53.3L52.7749 53.2292L52.7159 53.0168V52.2632L52.8169 52.1467L52.737 52.0051L52.859 51.8636L53.04 51.9094L53.482 51.4847L53.705 51.4389L53.966 51.4639L54.3279 51.2765L54.4079 51.1349L54.4668 51.0891L54.5258 51.1141L54.5847 51.0184H54.7657L55.0266 51.1349L55.2076 51.4639H55.3886L55.4896 51.5596L55.8515 51.7012L56.0746 51.7262V51.7969L56.1756 51.9135L56.7186 51.9385L57.2447 51.7969V51.8677L57.0006 51.9635L56.9585 51.9177L56.7985 52.0343H56.7186L56.2135 51.9885L55.9105 51.8927L55.5485 51.6346L55.3886 51.6804L55.4896 51.7053L55.5317 51.8011L55.6116 51.8261L55.5906 51.9218L56.0157 52.1342L56.0746 52.2508L56.1546 52.2757L56.2766 52.4173L56.3187 52.5838L56.3987 52.538V52.3007H56.4787L56.5165 52.5131H56.6176L56.6597 52.3715L56.5586 52.2757V52.18L56.5797 52.1342L56.7017 52.1592L56.8617 52.3965L56.9206 52.8461L57.0595 52.8919L57.1395 53.0793H57.4004L57.5014 53.0085L57.7245 52.9835L57.6656 52.817L57.7455 52.792L58.0696 53.0043L58.1286 53.3832L58.5326 53.2666L58.5536 53.1959L58.4947 53.1001L58.2927 53.0751L58.2506 52.8378L58.0907 52.8628L57.9686 52.792L58.2927 52.6963L58.9367 52.2716L59.0755 52.2466L59.1555 52.0801L59.2776 52.0551V51.9593L59.4165 51.8885V51.772L59.5175 51.6762L59.6395 51.4181L59.9215 51.1599L60.3466 50.5437L61.0706 48.8659L61.1926 48.8201L61.1505 48.6535L61.3315 48.0623L61.4115 48.0165L61.3904 47.9207L61.5504 47.4711L61.6514 47.4003L61.6093 47.3045L61.8113 46.6176L61.7903 46.5218L61.9713 45.6017L61.9923 44.5608L61.7903 44.1528L61.6514 43.9446L61.4914 43.828L61.2515 43.8031L61.1716 43.8738V44.0612L61.0285 44.0154L60.8475 44.0404V43.853L61.1716 43.0037L61.2137 42.3875L61.4957 41.23L61.5167 40.5431L61.5756 40.4015L61.5546 40.1184L61.5967 40.0934V39.8561L61.6766 39.573L61.6556 39.4564L61.8366 39.0067V38.7944L61.9586 38.7486V38.1116L62.0386 38.0408L62.0975 37.6869L62.3795 37.1665L62.3585 36.8334L62.2996 36.7168L62.3585 36.671V36.3629L62.4595 36.1756L62.4384 35.9383L62.5605 35.676L62.5395 35.6052L62.6405 35.5594L62.5984 35.3221L62.7373 35.0389L62.7962 34.6851L62.8972 34.4977L62.9393 34.1438L63.1413 33.7899L63.0614 33.7441V33.5984L63.2634 33.4318L63.2213 33.386L63.2802 33.1945L63.2381 33.0779L63.377 32.8656L63.3349 32.6283H63.3939L63.3728 32.366L63.4738 32.2952L63.4949 31.7498L63.5748 31.5833L63.6169 30.8005L63.6969 30.659V30.3967L63.638 30.3259V29.5182L66.8746 29.4724L69.16 29.2809L71.7274 29.7222L71.98 29.6139L72.3966 29.1684L73.2342 28.8978L75.9195 28.8104L78.7142 28.4232L80.1536 28.7563L81.3742 31.0545L82.056 31.8289L83.1503 32.4701L83.5712 32.5908L85.4147 31.7748L87.4055 31.6207L87.9274 31.3459L89.1648 30.1635L89.5226 29.6805L90.1202 29.2475L90.4359 29.2142L91.7154 29.5182L92.9444 29.0602L93.1127 28.8562L93.2095 27.7778L93.3737 27.4198L94.7542 26.8411L95.1162 25.9875L95.2635 24.1223L95.718 22.0489L96.181 21.2495L96.5387 20.2961L96.4798 19.2594L96.2189 18.0936L96.2525 17.4274L96.8713 16.0327L97.2921 15.6829L97.9698 14.7961L98.6642 13.2806L98.8368 13.0974L99.3461 13.5096L101.063 15.9327L101.345 16.0202L101.615 15.7662L101.888 15.0917L102.229 14.6504L104.334 13.672L106.556 12.3563L107.301 11.6444L108.378 9.9415L108.984 9.40025L109.435 9.22538L111.253 9.37527L112.356 9.18791L113.812 8.58837L115.163 7.50171L115.588 6.92714L115.811 6.25266L116.152 4.07516L116.771 3.09258L117.874 2.30152L121.897 0.124023L122.272 0.411303L122.373 1.0275L122.112 2.11417L121.35 3.35488L119.911 4.9828L119.292 6.57325L119.069 8.12206L119.418 11.5902L119.309 12.1731L118.475 13.5845L119.014 14.2216L120.087 15.125L120.555 15.7745L120.799 16.1867L121.283 17.9229L121.375 18.9263L121.232 19.6049L120.959 20.3002L120.31 20.9955L120.079 21.4535L120.218 22.3778L120.82 22.5943L121.813 22.6984L122.364 22.9524L123.892 25.1424L123.72 27.3781L122.562 28.3899Z" stroke="#403F36"/>
</g>
<defs>
<clipPath id="clip0_64_1931">
<rect width="124" height="330" fill="white"/>
</clipPath>
</defs>
</svg>
